<svg width="162.9" height="70" viewBox="0 0 162.9 70" xmlns="http://www.w3.org/2000/svg"><g id="svgGroup" stroke-linecap="round" fill-rule="evenodd" font-size="9pt" stroke="#00000000" stroke-width="0.25mm" fill="#191C24" style="stroke:#00000000;stroke-width:0.25mm;fill:#191C24"><path d="M 150.1 46.6 L 154.1 46.6 L 154.1 47.1 L 161.9 47.1 L 161.9 48.1 L 161.5 48.1 L 161.5 49.6 L 140.8 49.6 L 140.8 50.1 L 144.4 50.1 L 144.4 51.6 L 155.4 51.6 L 155.4 52.6 L 149.7 52.6 L 149.7 54.6 L 149.4 54.6 L 149.4 55.1 L 142.8 55.1 L 142.8 56.6 L 152.6 56.6 L 152.6 57.1 L 153 57.1 L 153 58.6 L 154 58.6 L 154 60.6 L 134.7 60.6 L 134.7 62.1 L 155.1 62.1 L 155.1 63.1 L 148.3 63.1 L 148.3 64.6 L 147.4 64.6 L 147.4 65.6 L 149.7 65.6 L 149.7 66.6 L 148.2 66.6 L 148.2 67.6 L 151.7 67.6 L 151.4 68.6 L 156.1 68.6 Q 155.9 68.9 155.65 69.15 Q 155.4 69.4 155.1 69.6 L 157.4 69.6 Q 156.99 69.928 156.311 69.987 A 3.593 3.593 0 0 1 156 70 L 136.4 70 Q 135.765 70 135.329 69.801 A 1.565 1.565 0 0 1 135 69.6 L 132.7 69.6 Q 132 69.3 131.7 68.6 L 127 68.6 L 126.7 67.6 L 123.2 67.6 L 123.2 66.6 L 124.7 66.6 L 124.7 65.6 L 122.4 65.6 L 122.4 64.6 L 123.3 64.6 L 123.3 63.1 L 130.1 63.1 L 130.1 62.1 L 112 62.1 L 112 63.1 L 103.7 63.1 L 103.7 64.6 L 109.4 64.6 L 109.4 65.6 L 108 65.6 L 108 66.6 L 113.2 66.6 L 113.2 67.6 L 107.6 67.6 L 107.3 68.6 L 109.5 68.6 Q 109.196 69.132 108.834 69.433 A 1.875 1.875 0 0 1 108.6 69.6 L 106.2 69.6 Q 105.79 69.928 105.111 69.987 A 3.593 3.593 0 0 1 104.8 70 L 85.2 70 A 3.991 3.991 0 0 1 84.65 69.965 Q 84.372 69.926 84.147 69.845 A 1.56 1.56 0 0 1 83.7 69.6 L 86.1 69.6 A 2.048 2.048 0 0 1 85.667 69.246 Q 85.496 69.065 85.34 68.828 A 4.145 4.145 0 0 1 85.2 68.6 L 82.9 68.6 A 2.227 2.227 0 0 1 82.685 68.132 A 1.741 1.741 0 0 1 82.6 67.6 L 88.2 67.6 L 88.2 66.6 L 83 66.6 L 83 65.6 L 84.4 65.6 L 84.4 64.6 L 78.7 64.6 L 78.7 63.1 L 87 63.1 L 87 62.1 L 91.8 62.1 L 91.8 60.6 L 76.4 60.6 L 76.4 58.6 L 82.1 58.6 L 82.1 57.1 L 86.1 57.1 L 86.1 56.6 L 83.3 56.6 L 83.3 55.1 L 78.6 55.1 L 78.6 54.6 L 79.6 54.6 L 79.6 52.6 L 82.8 52.6 L 82.8 51.6 L 84.3 51.6 L 84.3 50.1 L 77.1 50.1 L 77.1 49.6 L 95.6 49.6 L 95.6 48.1 L 73 48.1 L 73 47.1 L 94.3 47.1 L 94.3 46.6 L 83.9 46.6 L 83.9 45.1 L 89.9 45.1 L 89.9 44.6 L 91.1 44.6 L 91.1 44.1 L 90.6 44.1 L 90.6 42.1 L 80.7 42.1 L 80.7 40.6 L 84 40.6 L 84 40.1 L 83.1 40.1 L 83.1 38.6 L 83.5 38.6 L 83.5 38.1 L 83.6 38.1 L 83.6 37.1 L 83.7 37.1 L 83.7 36.6 L 82.4 36.6 L 82.4 36.1 L 78.5 36.1 L 78.5 34.6 L 79.8 34.6 L 79.8 33.1 L 77.8 33.1 L 77.8 31.6 L 82.8 31.6 L 82.8 29.6 L 81.7 29.6 L 81.7 28.6 L 74.4 28.6 L 74.4 28.1 L 86.1 28.1 L 86.1 27.1 L 88.9 27.1 L 88.9 26.6 L 61.9 26.6 L 61.9 26.1 L 77.8 26.1 L 77.8 25.6 L 83.5 25.6 L 83.5 24.1 L 73.3 24.1 L 73.3 22.1 L 70.5 22.1 L 70.5 20.6 L 82.5 20.6 L 82.5 18.6 L 83.5 18.6 L 83.5 17.1 L 89.9 17.1 L 89.9 16.6 L 84.4 16.6 L 84.4 14.6 L 88.9 14.6 L 88.9 13.6 L 83.5 13.6 L 83.5 13.1 L 81.6 13.1 L 81.6 12.1 L 78.7 12.1 L 78.7 11.1 L 75.2 11.1 L 75.2 9.1 L 81.5 9.1 L 81.5 7.6 L 85.3 7.6 L 85.3 6.1 L 83.5 6.1 L 83.5 5.1 L 81 5.1 L 81 4.6 L 82.4 4.6 L 82.4 3.6 L 82.1 3.6 L 82.1 2.7 Q 82.1 2.206 82.25 1.861 A 1.286 1.286 0 0 1 82.4 1.6 L 88.8 1.6 Q 88.9 1.3 89.1 1.05 A 5.849 5.849 0 0 1 89.35 0.757 A 4.855 4.855 0 0 1 89.5 0.6 L 104.9 0.6 A 1.953 1.953 0 0 1 105.785 0.1 Q 106.151 0 106.6 0 L 145 0 A 2.767 2.767 0 0 1 145.912 0.146 A 2.419 2.419 0 0 1 146.7 0.6 L 162.1 0.6 L 162.55 1.05 A 1.523 1.523 0 0 1 162.784 1.347 A 1.291 1.291 0 0 1 162.9 1.6 L 150 1.6 A 4.296 4.296 0 0 1 150.137 2.106 Q 150.192 2.38 150.199 2.63 A 2.554 2.554 0 0 1 150.2 2.7 L 150.2 3.6 L 150.7 3.6 L 150.7 4.6 L 152.1 4.6 L 152.1 5.1 L 149.4 5.1 L 149.4 6.1 L 148.2 6.1 L 148.2 7.6 L 152.1 7.6 L 152.1 9.1 L 142.7 9.1 L 142.7 11.1 L 153.5 11.1 L 153.5 12.1 L 145.7 12.1 L 145.7 13.1 L 148.9 13.1 L 148.9 13.6 L 147.3 13.6 L 147.3 14.6 L 154.8 14.6 L 154.8 16.6 L 143.8 16.6 L 143.8 17.1 L 152.3 17.1 L 152.3 18.6 L 150.8 18.6 L 150.8 20.6 L 142.8 20.6 L 142.8 22.1 L 139.5 22.1 L 139.5 24.1 L 149.7 24.1 L 149.7 25.6 L 144 25.6 L 144 26.1 L 128.1 26.1 L 128.1 26.6 L 155.1 26.6 L 155.1 27.1 L 152.3 27.1 L 152.3 28.1 L 140.6 28.1 L 140.6 28.6 L 147.9 28.6 L 147.9 29.6 L 149 29.6 L 149 31.6 L 144 31.6 L 144 33.1 L 146 33.1 L 146 34.6 L 144.7 34.6 L 144.7 36.1 L 148.6 36.1 L 148.6 36.6 L 149.9 36.6 L 149.9 37.1 L 149.8 37.1 L 149.8 38.1 L 149.7 38.1 L 149.7 38.6 L 149.3 38.6 L 149.3 40.1 L 150.2 40.1 L 150.2 40.6 L 146.9 40.6 L 146.9 42.1 L 156.8 42.1 L 156.8 44.1 L 157.3 44.1 L 157.3 44.6 L 156.1 44.6 L 156.1 45.1 L 150.1 45.1 L 150.1 46.6 Z M 67.7 15.6 L 85.7 15.6 A 16.11 16.11 0 0 0 85.975 16.127 A 13.775 13.775 0 0 0 86.1 16.35 Q 86.3 16.7 86.4 17.1 L 82.7 17.1 Q 82.9 17.5 83.1 18.05 Q 83.3 18.6 83.5 19.1 L 67.8 19.1 L 68.4 21.1 L 76.5 21.1 L 76.8 22.6 L 75.7 22.6 A 0.881 0.881 0 0 1 75.772 22.81 Q 75.793 22.908 75.798 23.022 A 1.684 1.684 0 0 1 75.8 23.1 A 1.494 1.494 0 0 0 75.814 23.311 Q 75.838 23.475 75.9 23.6 L 73.2 23.6 L 73.3 24.6 L 75.4 24.6 A 5.693 5.693 0 0 0 75.42 25.081 A 4.731 4.731 0 0 0 75.45 25.35 A 4.954 4.954 0 0 1 75.493 25.807 A 5.966 5.966 0 0 1 75.5 26.1 L 79.2 26.1 A 3.947 3.947 0 0 1 79.261 26.386 Q 79.3 26.613 79.3 26.8 L 79.3 27.5 L 79.3 27.6 L 69.9 27.6 Q 69.9 28.1 69.95 28.6 Q 70 29.1 70 29.6 L 72.1 29.6 Q 72.1 30.1 72.15 30.6 Q 72.2 31.1 72.2 31.6 L 75.8 31.6 L 75.8 32.1 L 74.4 32.1 L 74.4 34.1 L 74.8 34.1 L 74.8 35.6 L 80.7 35.6 L 80.7 37.6 L 75.1 37.6 L 75.1 38.6 L 74.5 38.6 L 74.5 39.1 A 1.494 1.494 0 0 1 74.486 39.311 Q 74.463 39.475 74.4 39.6 L 72.6 39.6 L 72.6 41.6 L 72.8 41.6 A 1.634 1.634 0 0 0 72.743 41.83 Q 72.7 42.072 72.7 42.4 L 72.7 42.6 L 76.4 42.6 A 5.693 5.693 0 0 1 76.38 43.081 A 4.731 4.731 0 0 1 76.35 43.35 A 4.954 4.954 0 0 0 76.307 43.807 A 5.966 5.966 0 0 0 76.3 44.1 L 77.8 44.1 Q 77.8 44.6 77.75 45.1 Q 77.7 45.6 77.6 46.1 L 75.4 46.1 A 0.881 0.881 0 0 0 75.328 46.31 Q 75.307 46.408 75.302 46.522 A 1.684 1.684 0 0 0 75.3 46.6 A 1.494 1.494 0 0 1 75.286 46.811 Q 75.263 46.975 75.2 47.1 L 63.2 47.1 Q 63.2 47.369 63.11 47.728 A 5.165 5.165 0 0 1 63 48.1 L 73.5 48.1 Q 73.37 48.491 73.324 48.797 A 2.075 2.075 0 0 0 73.3 49.1 L 74.8 49.1 A 8.239 8.239 0 0 0 74.703 49.535 A 6.538 6.538 0 0 0 74.65 49.85 Q 74.603 50.178 74.424 50.551 A 3.494 3.494 0 0 1 74.4 50.6 L 74.1 51.6 L 71.2 51.6 L 71 52.1 L 75.7 52.1 A 7.069 7.069 0 0 0 75.632 52.24 Q 75.5 52.519 75.5 52.6 L 72.5 52.6 L 72.3 53.1 L 72.2 53.1 L 71.8 54.1 A 6.84 6.84 0 0 1 71.409 54.913 A 7.737 7.737 0 0 1 71.3 55.1 L 69.8 55.1 L 68.7 57.1 L 70.4 57.1 L 69.8 58.1 L 69.9 58.1 A 2.696 2.696 0 0 0 69.712 58.31 Q 69.62 58.424 69.528 58.559 A 4.572 4.572 0 0 0 69.5 58.6 A 4.019 4.019 0 0 1 69.325 58.844 Q 69.23 58.965 69.135 59.064 A 2.339 2.339 0 0 1 69.1 59.1 L 68.4 59.1 A 4.09 4.09 0 0 0 68.247 59.261 Q 68.11 59.415 68.036 59.536 A 0.894 0.894 0 0 0 68 59.6 Q 67.7 60 67.4 60.35 Q 67.1 60.7 66.7 61.1 L 66.4 61.1 Q 65.9 61.6 65.35 62.1 Q 64.8 62.6 64.2 63.1 L 65.1 63.1 L 63 64.6 L 63.1 64.6 Q 62.3 65.1 61.4 65.6 Q 60.5 66.1 59.5 66.6 L 59.4 66.6 A 13.901 13.901 0 0 1 58.58 66.975 Q 57.838 67.288 56.9 67.6 L 57 67.6 Q 55 68.3 52.8 68.8 Q 50.6 69.3 48.3 69.6 L 50.4 69.6 Q 48.8 69.8 47.1 69.9 A 59.468 59.468 0 0 1 43.712 70 A 64.669 64.669 0 0 1 43.6 70 L 14.3 70 Q 13.665 70 13.229 69.801 A 1.565 1.565 0 0 1 12.9 69.6 L 10.8 69.6 A 2.375 2.375 0 0 1 9.776 68.325 A 3.64 3.64 0 0 1 9.6 67.6 L 9.5 67.6 L 9.5 66.6 L 9.7 66.6 L 9.7 64.6 L 9.5 64.6 L 9.5 63.1 L 8.7 63.1 L 8.7 61.1 L 9 61.1 L 9 59.6 L 8.9 59.6 L 8.9 59.1 L 9.7 59.1 L 9.7 58.1 L 9.6 58.1 L 9.6 57.1 L 7.8 57.1 L 7.8 55.1 L 9.4 55.1 L 9.4 53.1 L 9.5 53.1 L 9.5 52.6 L 12.5 52.6 L 12.5 52.1 L 7.9 52.1 L 7.9 51.6 L 10.8 51.6 L 10.8 49.1 L 9.4 49.1 L 9.4 48.1 L 9.3 48.1 L 9.3 47.1 L 11.9 47.1 L 11.9 46.1 L 0.4 46.1 L 0.4 44.1 L 0 44.1 L 0 42.6 L 1.3 42.6 L 1.3 41.6 L 5.4 41.6 L 5.4 39.6 L 8 39.6 L 8 38.6 L 9.5 38.6 L 9.5 37.6 L 11.1 37.6 L 11.1 35.6 L 13.4 35.6 L 13.4 34.1 L 15.6 34.1 L 15.6 32.1 L 8.9 32.1 L 8.9 31.6 L 6.7 31.6 L 6.7 29.6 L 2.3 29.6 L 2.3 27.6 L 13.7 27.6 L 13.7 26.1 L 4.9 26.1 L 4.9 24.6 L 9.7 24.6 L 9.7 23.6 L 9.5 23.6 L 9.5 22.6 L 8.7 22.6 L 8.7 21.1 L 4.4 21.1 L 4.4 19.1 L 20 19.1 L 20 17.1 L 23.7 17.1 L 23.7 15.6 L 5.7 15.6 L 5.7 13.6 L 17.5 13.6 L 17.5 13.1 L 8.2 13.1 L 8.2 12.6 L 27.1 12.6 L 27.1 10.6 L 24.7 10.6 L 24.7 10.1 L 0.9 10.1 L 0.9 8.1 L 3.8 8.1 L 3.8 6.6 L 10 6.6 L 10 6.1 L 13.3 6.1 L 13.3 5.1 L 11.5 5.1 L 11.5 4.6 L 9.4 4.6 L 9.4 3.6 L 9.6 3.6 L 9.6 2.7 A 1.359 1.359 0 0 1 9.61 2.535 Q 9.622 2.435 9.65 2.35 A 1.304 1.304 0 0 0 9.676 2.261 Q 9.688 2.216 9.694 2.176 A 0.519 0.519 0 0 0 9.7 2.1 L 10.1 2.1 Q 10.521 0.334 12.144 0.053 A 3.853 3.853 0 0 1 12.8 0 L 41.6 0 A 48.867 48.867 0 0 1 49.711 0.646 A 39.118 39.118 0 0 1 55.6 2.1 L 55.2 2.1 A 31.747 31.747 0 0 1 57.839 3.118 A 37.057 37.057 0 0 1 58.9 3.6 L 58.7 3.6 A 23.271 23.271 0 0 1 59.345 3.87 A 27.627 27.627 0 0 1 59.75 4.05 Q 60.3 4.3 60.7 4.6 L 62.8 4.6 L 63.7 5.1 L 65.4 5.1 A 3.377 3.377 0 0 1 65.889 5.341 A 2.669 2.669 0 0 1 66.25 5.6 Q 66.6 5.9 67 6.1 L 63.7 6.1 L 64.1 6.3 Q 64.3 6.4 64.4 6.6 L 58.2 6.6 L 60.1 8.1 L 57.1 8.1 Q 58.2 9 59.1 10.1 L 82.9 10.1 L 83.1 10.3 A 0.731 0.731 0 0 1 83.169 10.381 Q 83.202 10.425 83.234 10.48 A 1.826 1.826 0 0 1 83.3 10.6 L 85.8 10.6 A 7.004 7.004 0 0 1 86.225 11.068 A 9.236 9.236 0 0 1 86.6 11.55 A 15.857 15.857 0 0 1 87.018 12.153 A 12.581 12.581 0 0 1 87.3 12.6 L 68.4 12.6 L 68.6 12.8 A 0.731 0.731 0 0 1 68.669 12.881 Q 68.702 12.925 68.734 12.98 A 1.826 1.826 0 0 1 68.8 13.1 L 78.1 13.1 L 78.4 13.6 L 66.6 13.6 A 10.669 10.669 0 0 1 67.358 14.85 A 8.857 8.857 0 0 1 67.7 15.6 Z M 107.5 20.6 L 95.5 20.6 L 95.5 22.1 L 98.3 22.1 L 98.3 23.7 L 114.5 23.7 L 114.5 22.1 L 117.8 22.1 L 117.8 20.6 L 125.8 20.6 L 125.8 18.6 L 127.3 18.6 L 127.3 17.1 L 118.8 17.1 L 118.8 16.6 L 129.8 16.6 L 129.8 14.6 L 122.3 14.6 L 122.3 13.6 L 123.9 13.6 L 123.9 13.1 L 120.7 13.1 L 120.7 12.1 L 128.5 12.1 L 128.5 11.1 L 117.7 11.1 L 117.7 9.1 L 127.1 9.1 L 127.1 7.6 L 123.2 7.6 L 123.2 6.1 L 124.4 6.1 L 124.4 5.1 L 127.1 5.1 L 127.1 4.6 L 125.7 4.6 L 125.7 3.6 L 125.2 3.6 L 125.2 2.7 Q 125.2 2.232 125.376 1.675 A 4.943 4.943 0 0 1 125.4 1.6 L 138.3 1.6 A 8.403 8.403 0 0 1 138.55 1.245 A 7.027 7.027 0 0 1 138.7 1.05 A 5.849 5.849 0 0 1 138.95 0.757 A 4.855 4.855 0 0 1 139.1 0.6 L 112.5 0.6 Q 113 1 113.3 1.6 L 106.9 1.6 A 0.851 0.851 0 0 1 106.997 1.809 Q 107.1 2.125 107.1 2.7 L 107.1 3.6 L 107.4 3.6 L 107.4 4.6 L 106 4.6 L 106 5.1 L 108.5 5.1 L 108.5 6.1 L 110.3 6.1 L 110.3 7.6 L 106.5 7.6 L 106.5 9.1 L 100.2 9.1 L 100.2 11.1 L 103.7 11.1 L 103.7 12.1 L 106.6 12.1 L 106.6 13.1 L 108.5 13.1 L 108.5 13.6 L 113.9 13.6 L 113.9 14.6 L 109.4 14.6 L 109.4 16.6 L 114.9 16.6 L 114.9 17.1 L 108.5 17.1 L 108.5 18.6 L 107.5 18.6 L 107.5 20.6 Z M 49.3 22.6 L 50.4 22.6 Q 49.8 21.7 48.9 21.1 L 40.8 21.1 A 8.248 8.248 0 0 0 37.302 19.657 A 11.142 11.142 0 0 0 35.4 19.5 L 29.4 19.5 L 29.4 21.1 L 33.7 21.1 L 33.7 22.6 L 34.5 22.6 L 34.5 23.6 L 34.7 23.6 L 34.7 24.6 L 29.9 24.6 L 29.9 26.1 L 38.7 26.1 L 38.7 27.6 L 27.3 27.6 L 27.3 29.6 L 31.7 29.6 L 31.7 31.6 L 33.9 31.6 L 33.9 32.1 L 40.6 32.1 L 40.6 34.1 L 38.4 34.1 L 38.4 35.6 L 36.1 35.6 L 36.1 37.6 L 34.5 37.6 L 34.5 38.6 L 33 38.6 L 33 39.6 L 30.4 39.6 L 30.4 41.6 L 26.3 41.6 L 26.3 42.6 L 25 42.6 L 25 44.1 L 25.4 44.1 L 25.4 46.1 L 36.9 46.1 L 36.9 47.1 L 34.3 47.1 L 34.3 48.1 L 34.4 48.1 L 34.4 49.1 L 35.8 49.1 L 35.8 50.5 L 42.3 50.5 A 9.975 9.975 0 0 0 44.626 50.242 A 7.476 7.476 0 0 0 47.2 49.1 L 45.6 49.1 Q 45.9 48.9 46.2 48.65 A 2.652 2.652 0 0 0 46.601 48.238 A 2.381 2.381 0 0 0 46.7 48.1 L 36.3 48.1 A 5.087 5.087 0 0 0 36.55 47.831 A 6.126 6.126 0 0 0 36.7 47.65 Q 36.9 47.4 37 47.1 L 49 47.1 Q 49.2 46.9 49.3 46.65 Q 49.4 46.4 49.5 46.1 L 51.8 46.1 A 5.715 5.715 0 0 0 52.094 45.132 A 5.316 5.316 0 0 0 52.1 45.1 L 52.3 44.1 L 50.8 44.1 A 3.473 3.473 0 0 0 50.879 43.678 A 2.713 2.713 0 0 0 50.9 43.35 A 2.785 2.785 0 0 1 50.932 42.941 A 3.572 3.572 0 0 1 51 42.6 L 47.3 42.6 L 47.3 42.4 Q 47.3 42.2 47.35 42 Q 47.4 41.8 47.4 41.6 L 47.2 41.6 L 47.2 40.55 A 5.109 5.109 0 0 1 47.217 40.128 Q 47.241 39.838 47.3 39.6 L 49.1 39.6 L 49.1 38.6 L 49.7 38.6 L 49.8 37.6 L 55.4 37.6 L 55.4 35.6 L 49.5 35.6 L 49.5 34.1 L 49.1 34.1 L 49.1 32.1 L 50.5 32.1 L 50.5 31.6 L 46.8 31.6 L 46.8 29.6 L 44.6 29.6 L 44.6 28.6 Q 44.6 28.1 44.5 27.6 L 53.9 27.6 L 53.9 27.5 A 5.693 5.693 0 0 0 53.88 27.02 A 4.731 4.731 0 0 0 53.85 26.75 Q 53.8 26.4 53.8 26.1 L 50.1 26.1 Q 50 25.7 49.9 25.35 Q 49.8 25 49.7 24.6 L 47.6 24.6 Q 47.5 24.3 47.4 24.05 Q 47.3 23.8 47.2 23.6 L 49.9 23.6 A 2.838 2.838 0 0 0 49.713 23.162 A 2.529 2.529 0 0 0 49.65 23.05 Q 49.5 22.8 49.3 22.6 Z M 130.4 52.6 L 130.4 51.6 L 119.4 51.6 L 119.4 50.1 L 115.8 50.1 L 115.8 49.6 L 102.1 49.6 L 102.1 50.1 L 109.3 50.1 L 109.3 51.6 L 107.8 51.6 L 107.8 52.6 L 104.6 52.6 L 104.6 54.6 L 103.6 54.6 L 103.6 55.1 L 108.3 55.1 L 108.3 56.6 L 111.1 56.6 L 111.1 57.1 L 107.1 57.1 L 107.1 58.6 L 101.4 58.6 L 101.4 60.6 L 129 60.6 L 129 58.6 L 128 58.6 L 128 57.1 L 127.6 57.1 L 127.6 56.6 L 117.8 56.6 L 117.8 55.1 L 124.4 55.1 L 124.4 54.6 L 124.7 54.6 L 124.7 52.6 L 130.4 52.6 Z M 136.5 48.1 L 136.9 48.1 L 136.9 47.1 L 129.1 47.1 L 129.1 46.6 L 125.1 46.6 L 125.1 45.7 L 108.9 45.7 L 108.9 46.6 L 119.3 46.6 L 119.3 47.1 L 98 47.1 L 98 48.1 L 120.6 48.1 L 120.6 49.6 L 136.5 49.6 L 136.5 48.1 Z" vector-effect="non-scaling-stroke"/></g></svg>