<svg width="588.8" height="70" viewBox="0 0 588.8 70" xmlns="http://www.w3.org/2000/svg"><g id="svgGroup" stroke-linecap="round" fill-rule="evenodd" font-size="9pt" stroke="#00000000" stroke-width="0.25mm" fill="#ffffff" style="stroke:#00000000;stroke-width:0.25mm;fill:#ffffff"><path d="M 309.1 64.6 L 300.1 64.6 L 301.3 66.6 L 296.9 66.6 L 297 66.7 A 0.323 0.323 0 0 1 297.054 66.776 Q 297.098 66.858 297.129 66.992 A 1.869 1.869 0 0 1 297.15 67.1 A 2.374 2.374 0 0 0 297.195 67.311 Q 297.223 67.419 297.259 67.51 A 1.233 1.233 0 0 0 297.3 67.6 L 297 67.6 L 297 67.8 A 2.717 2.717 0 0 1 296.981 68.131 Q 296.959 68.307 296.914 68.458 A 1.615 1.615 0 0 1 296.9 68.5 A 2.358 2.358 0 0 1 296.726 68.894 A 2.891 2.891 0 0 1 296.6 69.1 L 297.9 69.1 Q 297.7 69.4 297.4 69.6 L 291.6 69.6 Q 291.1 70 290.3 70 L 267.5 70 A 4.179 4.179 0 0 1 266.84 69.95 A 3.394 3.394 0 0 1 266.4 69.85 A 24.42 24.42 0 0 0 265.953 69.721 Q 265.743 69.662 265.554 69.614 A 14.397 14.397 0 0 0 265.5 69.6 L 271.3 69.6 A 1.607 1.607 0 0 1 271.131 69.532 Q 270.942 69.443 270.677 69.279 A 10.011 10.011 0 0 1 270.4 69.1 L 269.1 69.1 Q 268.6 68.7 268.35 68.3 A 5.718 5.718 0 0 0 268.199 68.07 Q 268.038 67.838 267.9 67.7 L 267.8 67.6 L 268.1 67.6 L 267.6 66.6 L 271.9 66.6 L 270.8 64.6 L 279.8 64.6 L 279.5 64.1 L 271.7 64.1 L 271.6 63.9 L 271.6 64.1 L 256 64.1 L 256 64.6 L 266.4 64.6 L 266.4 66.6 L 260 66.6 L 260 67.6 L 250.3 67.6 A 1.703 1.703 0 0 1 250.183 68.213 A 2.091 2.091 0 0 1 250.1 68.4 Q 249.902 68.797 249.703 69.096 A 4.932 4.932 0 0 1 249.7 69.1 L 248.8 69.1 A 7.139 7.139 0 0 1 248.618 69.277 Q 248.352 69.525 248.2 69.6 L 241.7 69.6 Q 241.29 69.928 240.611 69.987 A 3.593 3.593 0 0 1 240.3 70 L 221.2 70 Q 220.565 70 220.129 69.801 A 1.565 1.565 0 0 1 219.8 69.6 L 226.2 69.6 Q 226 69.5 225.6 69.1 L 226.5 69.1 Q 226.3 68.8 226.1 68.4 A 1.926 1.926 0 0 1 225.938 67.95 A 1.633 1.633 0 0 1 225.9 67.6 L 235.5 67.6 L 235.5 66.6 L 241.9 66.6 L 241.9 64.6 L 231.5 64.6 L 231.5 64.1 L 247.1 64.1 L 247.1 62.6 L 228 62.6 L 228 61.1 L 229.8 61.1 L 229.8 59.1 L 231.4 59.1 L 231.4 58.1 L 231.1 58.1 L 231.1 56.1 L 230.9 56.1 L 230.9 54.1 L 230.1 54.1 L 230.1 52.6 L 230.7 52.6 L 230.7 51.6 L 231.8 51.6 L 231.8 49.6 L 235.4 49.6 L 235.4 48.1 L 222.7 48.1 L 222.7 47.1 L 221.8 47.1 L 221.8 46.6 L 233.2 46.6 L 233.2 45.6 L 234.2 45.6 L 234.2 45.1 L 221.2 45.1 L 221.2 43.6 L 222.9 43.6 L 222.9 42.6 L 223.5 42.6 L 223.5 40.6 L 233.3 40.6 L 233.3 39.6 L 236 39.6 L 236 38.1 L 223.4 38.1 L 223.4 36.1 L 226.8 36.1 L 226.8 34.6 L 231.2 34.6 L 231.2 34.1 L 237.9 34.1 L 237.9 33.1 L 241.4 33.1 L 241.4 31.6 L 242.1 31.6 L 242.1 31.1 L 240 31.1 L 240 29.6 L 233.3 29.6 L 233.3 29.1 L 228.6 29.1 L 228.6 27.1 L 247.3 27.1 L 247.3 26.1 L 224.3 26.1 L 224.3 25.1 L 241.6 25.1 L 241.6 23.6 L 224.9 23.6 L 224.9 22.6 L 231.4 22.6 L 231.4 21.6 L 237.6 21.6 L 237.6 19.6 L 235.6 19.6 L 235.6 18.1 L 236.2 18.1 L 236.2 16.6 L 233.3 16.6 L 233.3 16.1 L 231.2 16.1 L 231.2 14.6 L 230.6 14.6 L 230.6 14.1 L 231.9 14.1 L 231.9 13.1 L 233.2 13.1 L 233.2 11.1 L 222.2 11.1 L 222.2 10.6 L 222.8 10.6 L 222.8 10.1 L 226.9 10.1 L 226.9 9.6 L 225.5 9.6 L 225.5 9.1 L 233.2 9.1 L 233.2 8.6 L 231.3 8.6 L 231.3 8.1 L 231.2 8.1 L 231.2 6.1 L 231.7 6.1 L 231.7 5.1 L 238.6 5.1 L 238.6 4.1 L 239.5 4.1 L 239.5 3.1 L 239.9 3.1 L 239.9 2.6 L 229.2 2.6 Q 229.3 1.5 230.2 0.6 L 231.3 0.6 A 1.953 1.953 0 0 1 232.185 0.1 Q 232.551 0 233 0 L 252.1 0 A 2.767 2.767 0 0 1 253.012 0.146 A 2.419 2.419 0 0 1 253.8 0.6 L 252.7 0.6 A 2.813 2.813 0 0 1 253.347 1.316 A 2.396 2.396 0 0 1 253.7 2.6 L 264.4 2.6 L 264.4 3.1 L 264 3.1 L 264 4.1 L 263.1 4.1 L 263.1 5.1 L 256.2 5.1 L 256.2 6.1 L 255.7 6.1 L 255.7 8.1 L 255.8 8.1 L 255.8 8.6 L 257.7 8.6 L 257.7 9.1 L 250 9.1 L 250 9.6 L 251.4 9.6 L 251.4 10.1 L 247.3 10.1 L 247.3 10.6 L 246.7 10.6 L 246.7 11.1 L 256.1 11.1 L 256.4 10.6 L 259.6 10.6 L 259.8 10.1 L 265.6 10.1 L 265.9 9.6 L 260.1 9.6 L 260.4 9.1 L 262.1 9.1 L 262.4 8.6 L 262.9 8.6 L 263.2 8.1 L 264.1 8.1 L 264.3 7.6 L 265.4 7.6 L 266.2 6.1 L 265.7 6.1 L 266.3 5.1 L 272 5.1 L 272.5 4.1 L 267.9 4.1 L 268.4 3.1 L 273.4 3.1 L 273.6 2.6 L 266.8 2.6 L 267 2.2 Q 267.5 1.2 268.5 0.6 L 267.7 0.6 A 3.287 3.287 0 0 1 268.671 0.171 Q 269.104 0.054 269.617 0.017 A 6.787 6.787 0 0 1 270.1 0 L 292.2 0 A 2.218 2.218 0 0 1 292.99 0.137 A 1.993 1.993 0 0 1 293.7 0.6 L 294.6 0.6 Q 295.3 1.3 295.3 2.2 A 1.412 1.412 0 0 1 295.295 2.33 Q 295.283 2.457 295.246 2.534 A 0.241 0.241 0 0 1 295.2 2.6 L 302.1 2.6 A 0.426 0.426 0 0 1 302.071 2.753 A 0.523 0.523 0 0 1 302.05 2.8 A 0.373 0.373 0 0 0 302.024 2.873 Q 302 2.963 302 3.1 L 297.1 3.1 L 296.9 3.3 L 296.5 4.1 L 301.1 4.1 L 300.5 5.1 L 294.8 5.1 L 294.2 6.1 L 294.7 6.1 L 293.8 7.6 L 292.8 7.6 L 292.5 8.1 L 291.6 8.1 L 291.3 8.6 L 290.8 8.6 L 290.5 9.1 L 288.7 9.1 L 288.4 9.6 L 294.3 9.6 L 294 10.1 L 288.2 10.1 L 287.9 10.6 L 284.7 10.6 L 284.4 11.1 L 285 11.1 L 283.9 13.1 L 287.9 13.1 L 287.3 14.1 L 288.2 14.1 L 287.9 14.6 L 288 14.6 L 287.1 16.1 L 288.5 16.1 L 288.2 16.6 L 288.3 16.6 L 287.4 18.1 L 285.4 18.1 L 284.5 19.6 L 286.6 19.6 L 285.4 21.6 L 284.3 21.6 L 283.7 22.6 L 277.2 22.6 L 276.6 23.6 L 293.3 23.6 L 292.4 25.1 L 275.1 25.1 L 274.5 26.1 L 297.5 26.1 L 296.9 27.1 L 278.2 27.1 L 277 29.1 L 281.7 29.1 L 281.4 29.6 L 288.1 29.6 L 287.2 31.1 L 289.3 31.1 L 289 31.6 L 288.3 31.6 L 287.4 33.1 L 283.9 33.1 L 283.7 33.5 L 284.1 34.1 L 277.4 34.1 L 277.7 34.6 L 273.3 34.6 L 274.2 36.1 L 270.7 36.1 L 271.9 38.1 L 284.5 38.1 L 285.4 39.6 L 282.7 39.6 L 283.3 40.6 L 273.5 40.6 L 274.7 42.6 L 274.1 42.6 L 274.7 43.6 L 273 43.6 L 273.9 45.1 L 286.9 45.1 L 287.2 45.6 L 286.1 45.6 L 286.7 46.6 L 283.9 46.6 L 284.2 47.1 L 283.2 47.1 L 283.8 48.1 L 276.4 48.1 L 277.3 49.6 L 285.9 49.6 L 287.1 51.6 L 286.9 51.6 L 287.5 52.6 L 288.3 52.6 L 289.2 54.1 L 291 54.1 L 292.2 56.1 L 290.4 56.1 L 291.6 58.1 L 291.7 58.1 L 292.2 59.1 L 292.4 59.1 L 293.6 61.1 L 294.2 61.1 L 295.1 62.6 L 300.1 62.6 L 301 64.1 L 308.8 64.1 L 309.1 64.6 Z M 369.3 46.6 L 373.3 46.6 L 373.3 47.1 L 381.1 47.1 L 381.1 48.1 L 380.7 48.1 L 380.7 49.6 L 360 49.6 L 360 50.1 L 363.6 50.1 L 363.6 51.6 L 374.6 51.6 L 374.6 52.6 L 368.9 52.6 L 368.9 54.6 L 368.6 54.6 L 368.6 55.1 L 362 55.1 L 362 56.6 L 371.8 56.6 L 371.8 57.1 L 372.2 57.1 L 372.2 58.6 L 373.2 58.6 L 373.2 60.6 L 353.9 60.6 L 353.9 62.1 L 374.3 62.1 L 374.3 63.1 L 367.5 63.1 L 367.5 64.6 L 366.6 64.6 L 366.6 65.6 L 368.9 65.6 L 368.9 66.6 L 367.4 66.6 L 367.4 67.6 L 370.9 67.6 L 370.6 68.6 L 375.3 68.6 Q 375.1 68.9 374.85 69.15 Q 374.6 69.4 374.3 69.6 L 376.6 69.6 Q 376.19 69.928 375.511 69.987 A 3.593 3.593 0 0 1 375.2 70 L 355.6 70 Q 354.965 70 354.529 69.801 A 1.565 1.565 0 0 1 354.2 69.6 L 351.9 69.6 Q 351.2 69.3 350.9 68.6 L 346.2 68.6 L 345.9 67.6 L 342.4 67.6 L 342.4 66.6 L 343.9 66.6 L 343.9 65.6 L 341.6 65.6 L 341.6 64.6 L 342.5 64.6 L 342.5 63.1 L 349.3 63.1 L 349.3 62.1 L 331.2 62.1 L 331.2 63.1 L 322.9 63.1 L 322.9 64.6 L 328.6 64.6 L 328.6 65.6 L 327.2 65.6 L 327.2 66.6 L 332.4 66.6 L 332.4 67.6 L 326.8 67.6 L 326.5 68.6 L 328.7 68.6 Q 328.396 69.132 328.034 69.433 A 1.875 1.875 0 0 1 327.8 69.6 L 325.4 69.6 Q 324.99 69.928 324.311 69.987 A 3.593 3.593 0 0 1 324 70 L 304.4 70 A 3.991 3.991 0 0 1 303.85 69.965 Q 303.572 69.926 303.347 69.845 A 1.56 1.56 0 0 1 302.9 69.6 L 305.3 69.6 A 2.048 2.048 0 0 1 304.867 69.246 Q 304.696 69.065 304.54 68.828 A 4.145 4.145 0 0 1 304.4 68.6 L 302.1 68.6 A 2.227 2.227 0 0 1 301.885 68.132 A 1.741 1.741 0 0 1 301.8 67.6 L 307.4 67.6 L 307.4 66.6 L 302.2 66.6 L 302.2 65.6 L 303.6 65.6 L 303.6 64.6 L 297.9 64.6 L 297.9 63.1 L 306.2 63.1 L 306.2 62.1 L 311 62.1 L 311 60.6 L 295.6 60.6 L 295.6 58.6 L 301.3 58.6 L 301.3 57.1 L 305.3 57.1 L 305.3 56.6 L 302.5 56.6 L 302.5 55.1 L 297.8 55.1 L 297.8 54.6 L 298.8 54.6 L 298.8 52.6 L 302 52.6 L 302 51.6 L 303.5 51.6 L 303.5 50.1 L 296.3 50.1 L 296.3 49.6 L 314.8 49.6 L 314.8 48.1 L 292.2 48.1 L 292.2 47.1 L 313.5 47.1 L 313.5 46.6 L 303.1 46.6 L 303.1 45.1 L 309.1 45.1 L 309.1 44.6 L 310.3 44.6 L 310.3 44.1 L 309.8 44.1 L 309.8 42.1 L 299.9 42.1 L 299.9 40.6 L 303.2 40.6 L 303.2 40.1 L 302.3 40.1 L 302.3 38.6 L 302.7 38.6 L 302.7 38.1 L 302.8 38.1 L 302.8 37.1 L 302.9 37.1 L 302.9 36.6 L 301.6 36.6 L 301.6 36.1 L 297.7 36.1 L 297.7 34.6 L 299 34.6 L 299 33.1 L 297 33.1 L 297 31.6 L 302 31.6 L 302 29.6 L 300.9 29.6 L 300.9 28.6 L 293.6 28.6 L 293.6 28.1 L 305.3 28.1 L 305.3 27.1 L 308.1 27.1 L 308.1 26.6 L 281.1 26.6 L 281.1 26.1 L 297 26.1 L 297 25.6 L 302.7 25.6 L 302.7 24.1 L 292.5 24.1 L 292.5 22.1 L 289.7 22.1 L 289.7 20.6 L 301.7 20.6 L 301.7 18.6 L 302.7 18.6 L 302.7 17.1 L 309.1 17.1 L 309.1 16.6 L 303.6 16.6 L 303.6 14.6 L 308.1 14.6 L 308.1 13.6 L 302.7 13.6 L 302.7 13.1 L 300.8 13.1 L 300.8 12.1 L 297.9 12.1 L 297.9 11.1 L 294.4 11.1 L 294.4 9.1 L 300.7 9.1 L 300.7 7.6 L 304.5 7.6 L 304.5 6.1 L 302.7 6.1 L 302.7 5.1 L 300.2 5.1 L 300.2 4.6 L 301.6 4.6 L 301.6 3.6 L 301.3 3.6 L 301.3 2.7 Q 301.3 2.206 301.45 1.861 A 1.286 1.286 0 0 1 301.6 1.6 L 308 1.6 Q 308.1 1.3 308.3 1.05 A 5.849 5.849 0 0 1 308.55 0.757 A 4.855 4.855 0 0 1 308.7 0.6 L 324.1 0.6 A 1.953 1.953 0 0 1 324.985 0.1 Q 325.351 0 325.8 0 L 364.2 0 A 2.767 2.767 0 0 1 365.112 0.146 A 2.419 2.419 0 0 1 365.9 0.6 L 381.3 0.6 L 381.75 1.05 A 1.523 1.523 0 0 1 381.984 1.347 A 1.291 1.291 0 0 1 382.1 1.6 L 369.2 1.6 A 4.296 4.296 0 0 1 369.337 2.106 Q 369.392 2.38 369.399 2.63 A 2.554 2.554 0 0 1 369.4 2.7 L 369.4 3.6 L 369.9 3.6 L 369.9 4.6 L 371.3 4.6 L 371.3 5.1 L 368.6 5.1 L 368.6 6.1 L 367.4 6.1 L 367.4 7.6 L 371.3 7.6 L 371.3 9.1 L 361.9 9.1 L 361.9 11.1 L 372.7 11.1 L 372.7 12.1 L 364.9 12.1 L 364.9 13.1 L 368.1 13.1 L 368.1 13.6 L 366.5 13.6 L 366.5 14.6 L 374 14.6 L 374 16.6 L 363 16.6 L 363 17.1 L 371.5 17.1 L 371.5 18.6 L 370 18.6 L 370 20.6 L 362 20.6 L 362 22.1 L 358.7 22.1 L 358.7 24.1 L 368.9 24.1 L 368.9 25.6 L 363.2 25.6 L 363.2 26.1 L 347.3 26.1 L 347.3 26.6 L 374.3 26.6 L 374.3 27.1 L 371.5 27.1 L 371.5 28.1 L 359.8 28.1 L 359.8 28.6 L 367.1 28.6 L 367.1 29.6 L 368.2 29.6 L 368.2 31.6 L 363.2 31.6 L 363.2 33.1 L 365.2 33.1 L 365.2 34.6 L 363.9 34.6 L 363.9 36.1 L 367.8 36.1 L 367.8 36.6 L 369.1 36.6 L 369.1 37.1 L 369 37.1 L 369 38.1 L 368.9 38.1 L 368.9 38.6 L 368.5 38.6 L 368.5 40.1 L 369.4 40.1 L 369.4 40.6 L 366.1 40.6 L 366.1 42.1 L 376 42.1 L 376 44.1 L 376.5 44.1 L 376.5 44.6 L 375.3 44.6 L 375.3 45.1 L 369.3 45.1 L 369.3 46.6 Z M 588.8 1.1 L 583.7 1.1 A 1.47 1.47 0 0 1 583.965 1.711 A 2.039 2.039 0 0 1 584 2.1 L 587.5 2.1 L 587.5 2.2 A 2.154 2.154 0 0 1 587.437 2.731 A 1.826 1.826 0 0 1 587.3 3.1 L 587 3.6 L 583.3 3.6 L 582.3 5.6 L 583.1 5.6 L 582.6 6.6 L 584.2 6.6 L 583.9 7.1 L 580.7 7.1 L 580 8.6 L 580.6 8.6 L 580.3 9.1 L 579.1 9.1 L 578.6 10.1 L 585.3 10.1 L 584.3 12.1 L 578.4 12.1 L 578.2 12.6 L 576.9 12.6 L 576.1 14.1 L 578.9 14.1 L 577.9 16.1 L 580 16.1 L 579.7 16.6 L 579 16.6 L 578.7 17.1 L 578.1 17.1 L 577.1 19.1 L 577.2 19.1 L 576.7 20.1 L 578.2 20.1 L 577.9 20.6 L 576.9 20.6 L 576.6 21.1 L 578.8 21.1 L 578.3 22.1 L 582 22.1 L 581.5 23.1 L 572.3 23.1 L 571.8 24.1 L 578.1 24.1 L 577.3 25.6 L 576 25.6 L 575.3 27.1 L 572.8 27.1 L 572.6 27.6 L 573.2 27.6 L 572.7 28.6 L 572.1 28.6 L 571.9 29.1 L 574 29.1 L 573.5 30.1 L 574.5 30.1 L 573.8 31.6 L 571.9 31.6 L 571.7 32.1 L 571.2 32.1 L 570.2 34.1 L 569.9 34.1 L 569.6 34.6 L 572.1 34.6 L 571.6 35.6 L 573.2 35.6 L 572.5 37.1 L 566.5 37.1 L 566 38.1 L 569.4 38.1 L 568.6 39.6 L 567.2 39.6 L 566.9 40.1 L 566.1 41.6 L 568.1 41.6 L 567.8 42.1 L 571.5 42.1 L 571.3 42.6 L 570.8 43.6 L 562.7 43.6 L 562.2 44.6 L 572.4 44.6 L 571.4 46.6 L 565.9 46.6 L 565.4 47.6 L 565.4 48.6 L 562.6 48.6 L 562.6 49.6 L 563.1 49.6 L 563.1 51.6 L 565.7 51.6 L 565.7 53.6 L 554.3 53.6 L 554.3 55.6 L 566 55.6 L 566 57.1 L 562 57.1 L 562 58.6 L 563.1 58.6 L 563.1 59.1 L 564.5 59.1 L 564.5 61.1 L 565.3 61.1 L 565.3 61.6 L 562.7 61.6 L 562.7 62.6 L 564.6 62.6 L 564.6 64.6 L 557.4 64.6 L 557.4 66.6 L 555.8 66.6 L 555.8 67.6 L 562.8 67.6 A 2.216 2.216 0 0 1 562.545 68.671 Q 562.247 69.223 561.6 69.6 L 560.4 69.6 Q 559.99 69.928 559.311 69.987 A 3.593 3.593 0 0 1 559 70 L 539.4 70 Q 538.765 70 538.329 69.801 A 1.565 1.565 0 0 1 538 69.6 L 539.1 69.6 A 2.82 2.82 0 0 1 537.932 67.78 A 3.78 3.78 0 0 1 537.9 67.6 L 530.8 67.6 L 530.8 66.6 L 532.4 66.6 L 532.4 64.6 L 539.6 64.6 L 539.6 62.6 L 537.7 62.6 L 537.7 61.6 L 540.3 61.6 L 540.3 61.1 L 539.5 61.1 L 539.5 59.1 L 538.1 59.1 L 538.1 58.6 L 537 58.6 L 537 57.1 L 541 57.1 L 541 55.6 L 529.3 55.6 L 529.3 53.6 L 540.7 53.6 L 540.7 51.6 L 538.1 51.6 L 538.1 49.6 L 537.6 49.6 L 537.6 48.6 L 540.4 48.6 L 540.4 47.6 L 539.9 46.6 L 545.4 46.6 L 544.4 44.6 L 534.2 44.6 L 533.7 43.6 L 541.7 43.6 L 541.2 42.6 L 541 42.1 L 537.3 42.1 L 537 41.6 L 535 41.6 L 534.3 40.1 L 534.4 40.1 L 534.1 39.6 L 535.5 39.6 L 534.8 38.1 L 531.4 38.1 L 530.9 37.1 L 536.9 37.1 L 536.1 35.6 L 534.5 35.6 L 534 34.6 L 531.5 34.6 L 531.2 34.1 L 531.6 34.1 L 530.6 32.1 L 531 32.1 L 530.8 31.6 L 532.6 31.6 L 531.8 30.1 L 530.8 30.1 L 530.3 29.1 L 528.2 29.1 L 527.9 28.6 L 528.5 28.6 L 528 27.6 L 527.4 27.6 L 527.1 27.1 L 529.6 27.1 L 528.8 25.6 L 530.1 25.6 L 529.3 24.1 L 523 24.1 L 522.5 23.1 L 531.7 23.1 L 531.2 22.1 L 522 22.1 L 521.5 21.1 L 523.5 21.1 L 523.3 20.6 L 527.9 20.6 L 527.7 20.1 L 528.2 20.1 L 527.7 19.1 L 524.2 19.1 L 523.2 17.1 L 523.7 17.1 L 523.4 16.6 L 522.6 16.6 L 522.3 16.1 L 522.2 16.1 L 521.2 14.1 L 518.9 14.1 L 518.1 12.6 L 519.3 12.6 L 519.1 12.1 L 510.5 12.1 L 509.5 10.1 L 511.8 10.1 L 511.3 9.1 L 517.4 9.1 L 517.2 8.6 L 519.7 8.6 L 518.9 7.1 L 514.8 7.1 L 514.6 6.6 L 520.1 6.6 L 519.6 5.6 L 513.7 5.6 L 512.6 3.6 L 515.9 3.6 L 515.6 3.1 A 1.904 1.904 0 0 1 515.411 2.429 A 2.337 2.337 0 0 1 515.4 2.2 L 515.4 2.1 L 518.1 2.1 A 1.567 1.567 0 0 1 518.139 1.747 A 1.341 1.341 0 0 1 518.2 1.55 Q 518.3 1.3 518.4 1.1 L 520.2 1.1 A 2.154 2.154 0 0 1 520.782 0.404 Q 521.205 0.082 521.791 0.017 A 2.791 2.791 0 0 1 522.1 0 L 540.9 0 A 6.737 6.737 0 0 1 541.676 0.043 Q 542.073 0.089 542.412 0.185 A 3.49 3.49 0 0 1 542.75 0.3 A 4.034 4.034 0 0 1 543.505 0.695 A 3.304 3.304 0 0 1 544 1.1 L 542.2 1.1 A 2.529 2.529 0 0 1 542.671 1.509 A 2.9 2.9 0 0 1 542.75 1.6 A 4.828 4.828 0 0 1 542.888 1.774 Q 543.03 1.961 543.1 2.1 L 540.4 2.1 L 540.6 2.5 L 541.1 3.6 L 537.9 3.6 L 538.9 5.6 L 544.9 5.6 L 545.4 6.6 L 539.8 6.6 L 540.1 7.1 L 544.2 7.1 L 544.9 8.6 L 542.4 8.6 L 542.7 9.1 L 536.6 9.1 L 537.1 10.1 L 534.7 10.1 L 535.7 12.1 L 544.3 12.1 L 544.6 12.6 L 543.3 12.6 L 544.1 14.1 L 546.4 14.1 L 547.4 16.1 L 547.5 16.1 L 547.8 16.6 L 548.6 16.6 L 548.8 17.1 L 548.3 17.1 L 549.3 19.1 L 551.9 19.1 L 552.9 17.1 L 553.5 17.1 L 553.8 16.6 L 554.6 16.6 L 554.8 16.1 L 552.7 16.1 L 553.7 14.1 L 550.9 14.1 L 551.6 12.6 L 553 12.6 L 553.2 12.1 L 559.1 12.1 L 560.1 10.1 L 553.3 10.1 L 553.8 9.1 L 555.1 9.1 L 555.3 8.6 L 554.7 8.6 L 555.4 7.1 L 558.6 7.1 L 558.9 6.6 L 557.3 6.6 L 557.8 5.6 L 557 5.6 L 558 3.6 L 561.7 3.6 L 562.3 2.5 L 562.5 2.1 L 559 2.1 A 2.696 2.696 0 0 0 559.188 1.891 Q 559.28 1.777 559.372 1.642 A 4.572 4.572 0 0 0 559.4 1.6 Q 559.6 1.3 559.9 1.1 L 565 1.1 A 3.185 3.185 0 0 1 565.678 0.589 A 4.292 4.292 0 0 1 566.3 0.3 A 4.664 4.664 0 0 1 567.378 0.043 A 5.979 5.979 0 0 1 568.1 0 L 586.9 0 A 2.4 2.4 0 0 1 587.711 0.13 Q 588.351 0.359 588.735 0.988 A 2.646 2.646 0 0 1 588.8 1.1 Z M 443.1 52.6 L 451 52.6 L 451 54.1 L 435.8 54.1 L 435.8 56.1 L 445.6 56.1 L 445.6 58.1 L 437 58.1 L 437 60.1 L 438.1 60.1 L 438.1 61.6 L 437.4 61.6 L 437.4 62.6 L 435.3 62.6 L 435.3 63.6 L 435.2 63.6 L 435.2 64.6 L 437.3 64.6 L 437.3 66.6 L 440.2 66.6 L 440.2 67.3 Q 440.2 67.434 440.155 67.523 A 0.296 0.296 0 0 1 440.1 67.6 L 422.3 67.6 A 0.881 0.881 0 0 0 422.228 67.81 Q 422.207 67.908 422.202 68.022 A 1.684 1.684 0 0 0 422.2 68.1 L 429.1 68.1 Q 428.8 69.1 428 69.6 L 426.1 69.6 Q 425.69 69.928 425.011 69.987 A 3.593 3.593 0 0 1 424.7 70 L 372.6 70 Q 371.8 70 371.1 69.6 L 373 69.6 A 2.832 2.832 0 0 1 372.299 68.867 Q 372.086 68.551 371.922 68.154 A 4.931 4.931 0 0 1 371.9 68.1 L 364.9 68.1 A 0.881 0.881 0 0 1 364.828 67.891 Q 364.807 67.793 364.802 67.679 A 1.684 1.684 0 0 1 364.8 67.6 L 382.7 67.6 L 382.7 66.6 L 379.8 66.6 L 379.8 64.6 L 377.7 64.6 L 377.7 63.6 L 377.8 63.6 L 377.8 62.6 L 379.9 62.6 L 379.9 61.6 L 380.6 61.6 L 380.6 60.1 L 379.5 60.1 L 379.5 58.1 L 388.1 58.1 L 388.1 56.1 L 378.3 56.1 L 378.3 54.1 L 393.5 54.1 L 393.5 52.6 L 385.6 52.6 L 385.6 51.6 L 387.9 51.6 L 387.9 50.6 L 388.9 50.6 L 388.9 49.6 L 377.8 49.6 L 377.8 48.6 L 375.2 48.6 L 375.2 47.1 L 384.5 47.1 L 384.5 46.6 L 377.1 46.6 L 377.1 45.6 L 379.3 45.6 L 379.3 44.6 L 380.9 44.6 L 380.9 43.1 L 380.7 43.1 L 380.7 41.1 L 379.7 41.1 L 379.7 39.1 L 378.2 39.1 L 378.2 38.1 L 379.4 38.1 L 379.4 36.1 L 378.3 36.1 L 378.3 35.1 L 379.9 35.1 L 379.9 33.6 L 380.3 33.6 L 380.3 32.1 L 382.1 32.1 L 382.1 31.6 L 380.4 31.6 L 380.4 29.6 L 378.9 29.6 L 378.9 28.1 L 379.3 28.1 L 379.3 26.6 L 379.5 26.6 L 379.5 24.6 L 381 24.6 L 381 22.6 L 378.8 22.6 L 378.8 20.6 L 379.1 20.6 L 379.1 18.6 L 381.9 18.6 L 381.9 17.1 L 380.4 17.1 L 380.4 15.6 L 379.6 15.6 L 379.6 15.1 L 383.8 15.1 L 383.8 13.6 L 391.2 13.6 L 391.2 12.6 L 388.2 12.6 L 388.2 11.6 L 378.5 11.6 L 378.5 11.1 L 379.6 11.1 L 379.6 9.6 L 379.7 9.6 L 379.7 8.1 L 380 8.1 L 380 6.1 L 379.9 6.1 L 379.9 3.6 L 379.7 3.6 L 379.7 2.7 Q 379.7 2.3 379.8 2.1 L 378.8 2.1 A 3.126 3.126 0 0 1 379.14 1.133 Q 379.633 0.266 380.696 0.063 A 3.75 3.75 0 0 1 381.4 0 L 432.7 0 A 3.717 3.717 0 0 1 433.683 0.12 Q 435.071 0.501 435.3 2.1 L 436.3 2.1 A 0.746 0.746 0 0 1 436.353 2.245 Q 436.4 2.425 436.4 2.7 L 436.4 3.6 L 436.6 3.6 L 436.6 6.1 L 436.7 6.1 L 436.7 8.1 L 436.4 8.1 L 436.4 9.6 L 436.3 9.6 L 436.3 11.1 L 435.2 11.1 L 435.2 11.6 L 444.9 11.6 L 444.9 12.6 L 447.9 12.6 L 447.9 13.6 L 440.5 13.6 L 440.5 15.1 L 436.3 15.1 L 436.3 15.6 L 437.1 15.6 L 437.1 17.1 L 438.6 17.1 Q 438.4 18.1 437.9 18.6 L 435.1 18.6 A 2.276 2.276 0 0 1 433.529 19.474 A 3.348 3.348 0 0 1 433.1 19.5 L 403.1 19.5 L 403.1 20.6 L 402.8 20.6 L 402.8 22.6 L 405 22.6 L 405 24.6 L 403.5 24.6 L 403.5 25.8 L 431.3 25.8 A 2.591 2.591 0 0 1 433.175 26.576 A 3.269 3.269 0 0 1 433.2 26.6 L 433 26.6 Q 433.5 27.1 433.7 28.1 L 433.4 28.1 L 433.4 29.6 L 434.9 29.6 L 434.9 31.6 L 436.6 31.6 L 436.6 32.1 L 434.8 32.1 L 434.8 33.6 L 434.4 33.6 L 434.4 35.1 L 432.8 35.1 L 432.8 36.1 L 433.9 36.1 L 433.9 38.1 L 432.7 38.1 L 432.7 39.1 L 434.2 39.1 L 434.2 41.1 L 435.2 41.1 L 435.2 41.5 A 3.836 3.836 0 0 1 435.16 42.072 Q 435.059 42.741 434.7 43.1 L 434.9 43.1 A 2.531 2.531 0 0 1 433.082 44.179 A 3.269 3.269 0 0 1 432.7 44.2 L 404.9 44.2 L 404.9 44.6 L 403.3 44.6 L 403.3 45.6 L 401.1 45.6 L 401.1 46.6 L 408.5 46.6 L 408.5 47.1 L 399.2 47.1 L 399.2 48.6 L 401.8 48.6 L 401.8 49.6 L 412.9 49.6 L 412.9 50.5 L 443.7 50.5 Q 444.025 50.5 444.266 50.543 A 1.641 1.641 0 0 1 444.5 50.6 L 443.4 50.6 A 3.401 3.401 0 0 1 444.117 50.903 A 2.433 2.433 0 0 1 444.9 51.6 L 442.6 51.6 A 6.064 6.064 0 0 1 442.811 51.939 Q 443.006 52.277 443.083 52.537 A 1.511 1.511 0 0 1 443.1 52.6 Z M 67.7 15.6 L 85.7 15.6 A 16.11 16.11 0 0 0 85.975 16.127 A 13.775 13.775 0 0 0 86.1 16.35 Q 86.3 16.7 86.4 17.1 L 82.7 17.1 Q 82.9 17.5 83.1 18.05 Q 83.3 18.6 83.5 19.1 L 67.8 19.1 L 68.4 21.1 L 76.5 21.1 L 76.8 22.6 L 75.7 22.6 A 0.881 0.881 0 0 1 75.772 22.81 Q 75.793 22.908 75.798 23.022 A 1.684 1.684 0 0 1 75.8 23.1 A 1.494 1.494 0 0 0 75.814 23.311 Q 75.838 23.475 75.9 23.6 L 73.2 23.6 L 73.3 24.6 L 75.4 24.6 A 5.693 5.693 0 0 0 75.42 25.081 A 4.731 4.731 0 0 0 75.45 25.35 A 4.954 4.954 0 0 1 75.493 25.807 A 5.966 5.966 0 0 1 75.5 26.1 L 79.2 26.1 A 3.947 3.947 0 0 1 79.261 26.386 Q 79.3 26.613 79.3 26.8 L 79.3 27.5 L 79.3 27.6 L 69.9 27.6 Q 69.9 28.1 69.95 28.6 Q 70 29.1 70 29.6 L 72.1 29.6 Q 72.1 30.1 72.15 30.6 Q 72.2 31.1 72.2 31.6 L 75.8 31.6 L 75.8 32.1 L 74.4 32.1 L 74.4 34.1 L 74.8 34.1 L 74.8 35.6 L 80.7 35.6 L 80.7 37.6 L 75.1 37.6 L 75.1 38.6 L 74.5 38.6 L 74.5 39.1 A 1.494 1.494 0 0 1 74.486 39.311 Q 74.463 39.475 74.4 39.6 L 72.6 39.6 L 72.6 41.6 L 72.8 41.6 A 1.634 1.634 0 0 0 72.743 41.83 Q 72.7 42.072 72.7 42.4 L 72.7 42.6 L 76.4 42.6 A 5.693 5.693 0 0 1 76.38 43.081 A 4.731 4.731 0 0 1 76.35 43.35 A 4.954 4.954 0 0 0 76.307 43.807 A 5.966 5.966 0 0 0 76.3 44.1 L 77.8 44.1 Q 77.8 44.6 77.75 45.1 Q 77.7 45.6 77.6 46.1 L 75.4 46.1 A 0.881 0.881 0 0 0 75.328 46.31 Q 75.307 46.408 75.302 46.522 A 1.684 1.684 0 0 0 75.3 46.6 A 1.494 1.494 0 0 1 75.286 46.811 Q 75.263 46.975 75.2 47.1 L 63.2 47.1 Q 63.2 47.369 63.11 47.728 A 5.165 5.165 0 0 1 63 48.1 L 73.5 48.1 Q 73.37 48.491 73.324 48.797 A 2.075 2.075 0 0 0 73.3 49.1 L 74.8 49.1 A 8.239 8.239 0 0 0 74.703 49.535 A 6.538 6.538 0 0 0 74.65 49.85 Q 74.603 50.178 74.424 50.551 A 3.494 3.494 0 0 1 74.4 50.6 L 74.1 51.6 L 71.2 51.6 L 71 52.1 L 75.7 52.1 A 7.069 7.069 0 0 0 75.632 52.24 Q 75.5 52.519 75.5 52.6 L 72.5 52.6 L 72.3 53.1 L 72.2 53.1 L 71.8 54.1 A 6.84 6.84 0 0 1 71.409 54.913 A 7.737 7.737 0 0 1 71.3 55.1 L 69.8 55.1 L 68.7 57.1 L 70.4 57.1 L 69.8 58.1 L 69.9 58.1 A 2.696 2.696 0 0 0 69.712 58.31 Q 69.62 58.424 69.528 58.559 A 4.572 4.572 0 0 0 69.5 58.6 A 4.019 4.019 0 0 1 69.325 58.844 Q 69.23 58.965 69.135 59.064 A 2.339 2.339 0 0 1 69.1 59.1 L 68.4 59.1 A 4.09 4.09 0 0 0 68.247 59.261 Q 68.11 59.415 68.036 59.536 A 0.894 0.894 0 0 0 68 59.6 Q 67.7 60 67.4 60.35 Q 67.1 60.7 66.7 61.1 L 66.4 61.1 Q 65.9 61.6 65.35 62.1 Q 64.8 62.6 64.2 63.1 L 65.1 63.1 L 63 64.6 L 63.1 64.6 Q 62.3 65.1 61.4 65.6 Q 60.5 66.1 59.5 66.6 L 59.4 66.6 A 13.901 13.901 0 0 1 58.58 66.975 Q 57.838 67.288 56.9 67.6 L 57 67.6 Q 55 68.3 52.8 68.8 Q 50.6 69.3 48.3 69.6 L 50.4 69.6 Q 48.8 69.8 47.1 69.9 A 59.468 59.468 0 0 1 43.712 70 A 64.669 64.669 0 0 1 43.6 70 L 14.3 70 Q 13.665 70 13.229 69.801 A 1.565 1.565 0 0 1 12.9 69.6 L 10.8 69.6 A 2.375 2.375 0 0 1 9.776 68.325 A 3.64 3.64 0 0 1 9.6 67.6 L 9.5 67.6 L 9.5 66.6 L 9.7 66.6 L 9.7 64.6 L 9.5 64.6 L 9.5 63.1 L 8.7 63.1 L 8.7 61.1 L 9 61.1 L 9 59.6 L 8.9 59.6 L 8.9 59.1 L 9.7 59.1 L 9.7 58.1 L 9.6 58.1 L 9.6 57.1 L 7.8 57.1 L 7.8 55.1 L 9.4 55.1 L 9.4 53.1 L 9.5 53.1 L 9.5 52.6 L 12.5 52.6 L 12.5 52.1 L 7.9 52.1 L 7.9 51.6 L 10.8 51.6 L 10.8 49.1 L 9.4 49.1 L 9.4 48.1 L 9.3 48.1 L 9.3 47.1 L 11.9 47.1 L 11.9 46.1 L 0.4 46.1 L 0.4 44.1 L 0 44.1 L 0 42.6 L 1.3 42.6 L 1.3 41.6 L 5.4 41.6 L 5.4 39.6 L 8 39.6 L 8 38.6 L 9.5 38.6 L 9.5 37.6 L 11.1 37.6 L 11.1 35.6 L 13.4 35.6 L 13.4 34.1 L 15.6 34.1 L 15.6 32.1 L 8.9 32.1 L 8.9 31.6 L 6.7 31.6 L 6.7 29.6 L 2.3 29.6 L 2.3 27.6 L 13.7 27.6 L 13.7 26.1 L 4.9 26.1 L 4.9 24.6 L 9.7 24.6 L 9.7 23.6 L 9.5 23.6 L 9.5 22.6 L 8.7 22.6 L 8.7 21.1 L 4.4 21.1 L 4.4 19.1 L 20 19.1 L 20 17.1 L 23.7 17.1 L 23.7 15.6 L 5.7 15.6 L 5.7 13.6 L 17.5 13.6 L 17.5 13.1 L 8.2 13.1 L 8.2 12.6 L 27.1 12.6 L 27.1 10.6 L 24.7 10.6 L 24.7 10.1 L 0.9 10.1 L 0.9 8.1 L 3.8 8.1 L 3.8 6.6 L 10 6.6 L 10 6.1 L 13.3 6.1 L 13.3 5.1 L 11.5 5.1 L 11.5 4.6 L 9.4 4.6 L 9.4 3.6 L 9.6 3.6 L 9.6 2.7 A 1.359 1.359 0 0 1 9.61 2.535 Q 9.622 2.435 9.65 2.35 A 1.304 1.304 0 0 0 9.676 2.261 Q 9.688 2.216 9.694 2.176 A 0.519 0.519 0 0 0 9.7 2.1 L 10.1 2.1 Q 10.521 0.334 12.144 0.053 A 3.853 3.853 0 0 1 12.8 0 L 41.6 0 A 48.867 48.867 0 0 1 49.711 0.646 A 39.118 39.118 0 0 1 55.6 2.1 L 55.2 2.1 A 31.747 31.747 0 0 1 57.839 3.118 A 37.057 37.057 0 0 1 58.9 3.6 L 58.7 3.6 A 23.271 23.271 0 0 1 59.345 3.87 A 27.627 27.627 0 0 1 59.75 4.05 Q 60.3 4.3 60.7 4.6 L 62.8 4.6 L 63.7 5.1 L 65.4 5.1 A 3.377 3.377 0 0 1 65.889 5.341 A 2.669 2.669 0 0 1 66.25 5.6 Q 66.6 5.9 67 6.1 L 63.7 6.1 L 64.1 6.3 Q 64.3 6.4 64.4 6.6 L 58.2 6.6 L 60.1 8.1 L 57.1 8.1 Q 58.2 9 59.1 10.1 L 82.9 10.1 L 83.1 10.3 A 0.731 0.731 0 0 1 83.169 10.381 Q 83.202 10.425 83.234 10.48 A 1.826 1.826 0 0 1 83.3 10.6 L 85.8 10.6 A 7.004 7.004 0 0 1 86.225 11.068 A 9.236 9.236 0 0 1 86.6 11.55 A 15.857 15.857 0 0 1 87.018 12.153 A 12.581 12.581 0 0 1 87.3 12.6 L 68.4 12.6 L 68.6 12.8 A 0.731 0.731 0 0 1 68.669 12.881 Q 68.702 12.925 68.734 12.98 A 1.826 1.826 0 0 1 68.8 13.1 L 78.1 13.1 L 78.4 13.6 L 66.6 13.6 A 10.669 10.669 0 0 1 67.358 14.85 A 8.857 8.857 0 0 1 67.7 15.6 Z M 504.8 15.6 L 522.8 15.6 A 16.11 16.11 0 0 0 523.075 16.127 A 13.775 13.775 0 0 0 523.2 16.35 Q 523.4 16.7 523.5 17.1 L 519.8 17.1 Q 520 17.5 520.2 18.05 Q 520.4 18.6 520.6 19.1 L 504.9 19.1 L 505.5 21.1 L 513.6 21.1 L 513.9 22.6 L 512.8 22.6 A 0.881 0.881 0 0 1 512.872 22.81 Q 512.893 22.908 512.898 23.022 A 1.684 1.684 0 0 1 512.9 23.1 A 1.494 1.494 0 0 0 512.914 23.311 Q 512.938 23.475 513 23.6 L 510.3 23.6 L 510.4 24.6 L 512.5 24.6 A 5.693 5.693 0 0 0 512.52 25.081 A 4.731 4.731 0 0 0 512.55 25.35 A 4.954 4.954 0 0 1 512.593 25.807 A 5.966 5.966 0 0 1 512.6 26.1 L 516.3 26.1 A 3.947 3.947 0 0 1 516.361 26.386 Q 516.4 26.613 516.4 26.8 L 516.4 27.5 L 516.4 27.6 L 507 27.6 Q 507 28.1 507.05 28.6 Q 507.1 29.1 507.1 29.6 L 509.2 29.6 Q 509.2 30.1 509.25 30.6 Q 509.3 31.1 509.3 31.6 L 512.9 31.6 L 512.9 32.1 L 511.5 32.1 L 511.5 34.1 L 511.9 34.1 L 511.9 35.6 L 517.8 35.6 L 517.8 37.6 L 512.2 37.6 L 512.2 38.6 L 511.6 38.6 L 511.6 39.1 A 1.494 1.494 0 0 1 511.586 39.311 Q 511.563 39.475 511.5 39.6 L 509.7 39.6 L 509.7 41.6 L 509.9 41.6 A 1.634 1.634 0 0 0 509.843 41.83 Q 509.8 42.072 509.8 42.4 L 509.8 42.6 L 513.5 42.6 A 5.693 5.693 0 0 1 513.48 43.081 A 4.731 4.731 0 0 1 513.45 43.35 A 4.954 4.954 0 0 0 513.407 43.807 A 5.966 5.966 0 0 0 513.4 44.1 L 514.9 44.1 Q 514.9 44.6 514.85 45.1 Q 514.8 45.6 514.7 46.1 L 512.5 46.1 A 0.881 0.881 0 0 0 512.428 46.31 Q 512.407 46.408 512.402 46.522 A 1.684 1.684 0 0 0 512.4 46.6 A 1.494 1.494 0 0 1 512.386 46.811 Q 512.362 46.975 512.3 47.1 L 500.3 47.1 Q 500.3 47.369 500.21 47.728 A 5.165 5.165 0 0 1 500.1 48.1 L 510.6 48.1 Q 510.47 48.491 510.424 48.797 A 2.075 2.075 0 0 0 510.4 49.1 L 511.9 49.1 A 8.239 8.239 0 0 0 511.803 49.535 A 6.538 6.538 0 0 0 511.75 49.85 Q 511.703 50.178 511.524 50.551 A 3.494 3.494 0 0 1 511.5 50.6 L 511.2 51.6 L 508.3 51.6 L 508.1 52.1 L 512.8 52.1 A 7.069 7.069 0 0 0 512.732 52.24 Q 512.6 52.519 512.6 52.6 L 509.6 52.6 L 509.4 53.1 L 509.3 53.1 L 508.9 54.1 A 6.84 6.84 0 0 1 508.509 54.913 A 7.737 7.737 0 0 1 508.4 55.1 L 506.9 55.1 L 505.8 57.1 L 507.5 57.1 L 506.9 58.1 L 507 58.1 A 2.696 2.696 0 0 0 506.812 58.31 Q 506.72 58.424 506.628 58.559 A 4.572 4.572 0 0 0 506.6 58.6 A 4.019 4.019 0 0 1 506.425 58.844 Q 506.33 58.965 506.235 59.064 A 2.339 2.339 0 0 1 506.2 59.1 L 505.5 59.1 A 4.09 4.09 0 0 0 505.347 59.261 Q 505.21 59.415 505.136 59.536 A 0.894 0.894 0 0 0 505.1 59.6 Q 504.8 60 504.5 60.35 Q 504.2 60.7 503.8 61.1 L 503.5 61.1 Q 503 61.6 502.45 62.1 Q 501.9 62.6 501.3 63.1 L 502.2 63.1 L 500.1 64.6 L 500.2 64.6 Q 499.4 65.1 498.5 65.6 Q 497.6 66.1 496.6 66.6 L 496.5 66.6 A 13.901 13.901 0 0 1 495.68 66.975 Q 494.938 67.288 494 67.6 L 494.1 67.6 Q 492.1 68.3 489.9 68.8 Q 487.7 69.3 485.4 69.6 L 487.5 69.6 Q 485.9 69.8 484.2 69.9 A 59.468 59.468 0 0 1 480.812 70 A 64.669 64.669 0 0 1 480.7 70 L 451.4 70 Q 450.765 70 450.329 69.801 A 1.565 1.565 0 0 1 450 69.6 L 447.9 69.6 A 2.375 2.375 0 0 1 446.876 68.325 A 3.64 3.64 0 0 1 446.7 67.6 L 446.6 67.6 L 446.6 66.6 L 446.8 66.6 L 446.8 64.6 L 446.6 64.6 L 446.6 63.1 L 445.8 63.1 L 445.8 61.1 L 446.1 61.1 L 446.1 59.6 L 446 59.6 L 446 59.1 L 446.8 59.1 L 446.8 58.1 L 446.7 58.1 L 446.7 57.1 L 444.9 57.1 L 444.9 55.1 L 446.5 55.1 L 446.5 53.1 L 446.6 53.1 L 446.6 52.6 L 449.6 52.6 L 449.6 52.1 L 445 52.1 L 445 51.6 L 447.9 51.6 L 447.9 49.1 L 446.5 49.1 L 446.5 48.1 L 446.4 48.1 L 446.4 47.1 L 449 47.1 L 449 46.1 L 437.5 46.1 L 437.5 44.1 L 437.1 44.1 L 437.1 42.6 L 438.4 42.6 L 438.4 41.6 L 442.5 41.6 L 442.5 39.6 L 445.1 39.6 L 445.1 38.6 L 446.6 38.6 L 446.6 37.6 L 448.2 37.6 L 448.2 35.6 L 450.5 35.6 L 450.5 34.1 L 452.7 34.1 L 452.7 32.1 L 446 32.1 L 446 31.6 L 443.8 31.6 L 443.8 29.6 L 439.4 29.6 L 439.4 27.6 L 450.8 27.6 L 450.8 26.1 L 442 26.1 L 442 24.6 L 446.8 24.6 L 446.8 23.6 L 446.6 23.6 L 446.6 22.6 L 445.8 22.6 L 445.8 21.1 L 441.5 21.1 L 441.5 19.1 L 457.1 19.1 L 457.1 17.1 L 460.8 17.1 L 460.8 15.6 L 442.8 15.6 L 442.8 13.6 L 454.6 13.6 L 454.6 13.1 L 445.3 13.1 L 445.3 12.6 L 464.2 12.6 L 464.2 10.6 L 461.8 10.6 L 461.8 10.1 L 438 10.1 L 438 8.1 L 440.9 8.1 L 440.9 6.6 L 447.1 6.6 L 447.1 6.1 L 450.4 6.1 L 450.4 5.1 L 448.6 5.1 L 448.6 4.6 L 446.5 4.6 L 446.5 3.6 L 446.7 3.6 L 446.7 2.7 A 1.359 1.359 0 0 1 446.71 2.535 Q 446.722 2.435 446.75 2.35 A 1.304 1.304 0 0 0 446.776 2.261 Q 446.788 2.216 446.794 2.176 A 0.519 0.519 0 0 0 446.8 2.1 L 447.2 2.1 Q 447.621 0.334 449.244 0.053 A 3.853 3.853 0 0 1 449.9 0 L 478.7 0 A 48.867 48.867 0 0 1 486.811 0.646 A 39.118 39.118 0 0 1 492.7 2.1 L 492.3 2.1 A 31.747 31.747 0 0 1 494.939 3.118 A 37.057 37.057 0 0 1 496 3.6 L 495.8 3.6 A 23.271 23.271 0 0 1 496.445 3.87 A 27.627 27.627 0 0 1 496.85 4.05 Q 497.4 4.3 497.8 4.6 L 499.9 4.6 L 500.8 5.1 L 502.5 5.1 A 3.377 3.377 0 0 1 502.989 5.341 A 2.669 2.669 0 0 1 503.35 5.6 Q 503.7 5.9 504.1 6.1 L 500.8 6.1 L 501.2 6.3 Q 501.4 6.4 501.5 6.6 L 495.3 6.6 L 497.2 8.1 L 494.2 8.1 Q 495.3 9 496.2 10.1 L 520 10.1 L 520.2 10.3 A 0.731 0.731 0 0 1 520.269 10.381 Q 520.302 10.425 520.334 10.48 A 1.826 1.826 0 0 1 520.4 10.6 L 522.9 10.6 A 7.004 7.004 0 0 1 523.325 11.068 A 9.236 9.236 0 0 1 523.7 11.55 A 15.857 15.857 0 0 1 524.118 12.153 A 12.581 12.581 0 0 1 524.4 12.6 L 505.5 12.6 L 505.7 12.8 A 0.731 0.731 0 0 1 505.769 12.881 Q 505.802 12.925 505.834 12.98 A 1.826 1.826 0 0 1 505.9 13.1 L 515.2 13.1 L 515.5 13.6 L 503.7 13.6 A 10.669 10.669 0 0 1 504.458 14.85 A 8.857 8.857 0 0 1 504.8 15.6 Z M 222.7 30.1 L 217.8 30.1 Q 217.7 30.5 217.6 30.85 Q 217.5 31.2 217.301 31.599 A 4.263 4.263 0 0 1 217.3 31.6 L 220.1 31.6 L 219.8 32.6 L 217.4 32.6 A 17.079 17.079 0 0 1 217.075 33.488 Q 216.892 33.95 216.666 34.455 A 28.763 28.763 0 0 1 216.6 34.6 L 215.1 34.6 Q 214.7 35.6 214 36.6 L 214.2 36.6 Q 213.8 37.1 213.5 37.6 A 8.784 8.784 0 0 1 212.994 38.35 A 10.125 10.125 0 0 1 212.8 38.6 L 223.6 38.6 L 222.3 40.1 L 213.4 40.1 Q 213 40.6 212.4 41.1 A 17.129 17.129 0 0 0 211.589 41.819 A 14.752 14.752 0 0 0 211.3 42.1 L 212.6 42.1 A 5.124 5.124 0 0 1 212.041 42.581 A 6.361 6.361 0 0 1 211.65 42.85 Q 211.1 43.2 210.6 43.6 L 213.9 43.6 L 213.5 43.9 L 214.4 45.6 L 212 45.6 L 213.1 47.6 L 213.4 47.6 L 213.7 48.1 L 213.6 48.1 L 214.6 50.1 L 215.6 50.1 L 216.2 51.1 L 208.5 51.1 L 209.3 52.6 L 216.3 52.6 L 216.9 53.6 L 214.7 53.6 L 215.5 55.1 L 225.4 55.1 L 226.5 57.1 L 219.9 57.1 L 220.7 58.6 L 217.6 58.6 L 219.2 61.6 L 219.9 61.6 L 220.5 62.6 L 220.2 62.6 L 220.5 63.1 L 215.8 63.1 L 216.9 65.1 L 217.1 65.6 L 214 65.6 L 214.5 66.7 Q 214.8 67.1 214.8 67.6 L 216.9 67.6 L 216.9 67.8 A 2.149 2.149 0 0 1 216.192 69.437 A 2.801 2.801 0 0 1 216 69.6 L 218.7 69.6 Q 218.2 70 217.4 70 L 196.9 70 A 4.076 4.076 0 0 1 196.404 69.972 Q 196.141 69.939 195.914 69.871 A 2.423 2.423 0 0 1 195.85 69.85 A 7.784 7.784 0 0 0 195.04 69.629 A 8.696 8.696 0 0 0 194.9 69.6 L 192.2 69.6 A 4.835 4.835 0 0 1 191.258 68.989 A 4.238 4.238 0 0 1 190.85 68.6 A 22.323 22.323 0 0 1 190.531 68.245 Q 190.206 67.875 190 67.6 L 188 67.6 L 187.8 67.3 L 187.1 65.6 L 190.3 65.6 L 190 65.1 L 180.5 65.1 L 180.5 65.6 L 175.4 65.6 L 175.4 67.6 L 183.5 67.6 A 3.167 3.167 0 0 1 183.244 68.495 A 2.375 2.375 0 0 1 182.2 69.6 L 181.5 69.6 Q 180.8 70 180 70 L 160.4 70 Q 159.765 70 159.329 69.801 A 1.565 1.565 0 0 1 159 69.6 L 159.8 69.6 A 2.434 2.434 0 0 1 158.584 68.018 A 3.581 3.581 0 0 1 158.5 67.6 L 150.5 67.6 A 0.319 0.319 0 0 0 150.495 67.544 Q 150.49 67.513 150.478 67.489 A 0.148 0.148 0 0 0 150.45 67.45 Q 150.409 67.409 150.401 67.333 A 0.352 0.352 0 0 1 150.4 67.3 L 150.4 65.6 L 155.5 65.6 L 155.5 65.1 L 165.5 65.1 L 165.5 63.1 L 154.8 63.1 L 154.8 62.6 L 161.1 62.6 L 161.1 61.6 L 159 61.6 L 159 60.1 L 162.5 60.1 L 162.5 58.6 L 156.8 58.6 L 156.8 57.1 L 164.5 57.1 L 164.5 55.1 L 160.1 55.1 L 160.1 53.6 L 160 53.6 L 160 53.1 L 159.4 53.1 L 159.4 52.6 L 156.7 52.6 L 156.7 51.1 L 160.1 51.1 L 160.1 50.1 L 159.2 50.1 L 159.2 48.1 L 159.3 48.1 L 159.3 47.6 L 159 47.6 L 159 45.6 L 161.4 45.6 L 161.4 43.6 L 158 43.6 L 158 42.1 L 156.7 42.1 L 156.7 40.1 L 165.5 40.1 L 165.5 38.6 L 154.7 38.6 L 154.7 36.6 L 154.5 36.6 L 154.5 34.6 L 156 34.6 L 156 32.6 L 158.3 32.6 L 158.3 31.6 L 155.5 31.6 L 155.5 30.1 L 160.4 30.1 L 160.4 29.1 L 167.6 29.1 L 167.6 28.1 L 157.7 28.1 L 157.7 27.6 L 158.2 27.6 L 158.2 27.1 L 159.1 27.1 L 159.1 26.6 L 159.2 26.6 L 159.2 25.6 L 159 25.6 L 159 24.1 L 159.4 24.1 L 159.4 22.1 L 158.9 22.1 L 158.9 21.1 L 159.4 21.1 L 159.4 19.6 L 159 19.6 L 159 19.1 L 159.3 19.1 L 159.3 18.1 L 159.2 18.1 L 159.2 17.6 L 158.8 17.6 L 158.8 17.1 L 159.7 17.1 L 159.7 15.6 L 160.5 15.6 L 160.5 14.1 L 155.8 14.1 L 155.8 12.1 L 156.9 12.1 L 156.9 10.1 L 156.3 10.1 L 156.3 8.6 L 159 8.6 L 159 7.1 L 160 7.1 L 160 5.6 L 158.2 5.6 L 158.2 4.6 L 158.9 4.6 L 158.9 4.1 L 159.1 4.1 L 159.1 2.6 L 159.3 2.6 A 2.61 2.61 0 0 1 159.828 1.033 A 3.656 3.656 0 0 1 160.2 0.6 L 165.6 0.6 A 1.953 1.953 0 0 1 166.485 0.1 Q 166.851 0 167.3 0 L 196.9 0 A 54.267 54.267 0 0 1 201.918 0.223 A 44.16 44.16 0 0 1 204.9 0.6 L 199.6 0.6 Q 203.6 1.2 207.2 2.6 L 207 2.6 Q 208.7 3.2 210.3 4.1 L 210.1 4.1 L 211 4.6 L 210.2 4.6 A 3.377 3.377 0 0 1 210.689 4.841 A 2.669 2.669 0 0 1 211.05 5.1 Q 211.4 5.4 211.8 5.6 L 213.6 5.6 Q 214.1 6 214.6 6.35 A 6.854 6.854 0 0 1 215.346 6.952 A 6.144 6.144 0 0 1 215.5 7.1 L 214.5 7.1 Q 214.947 7.458 215.275 7.776 A 7.248 7.248 0 0 1 215.35 7.85 L 216.1 8.6 L 213.4 8.6 Q 213.8 9 214.1 9.35 Q 214.4 9.7 214.7 10.1 L 215.2 10.1 A 18.87 18.87 0 0 1 216.277 11.585 A 16.417 16.417 0 0 1 216.6 12.1 L 215.6 12.1 A 4.455 4.455 0 0 1 215.905 12.568 A 5.928 5.928 0 0 1 216.15 13.05 Q 216.4 13.6 216.7 14.1 L 221.4 14.1 L 222 15.6 L 221.2 15.6 A 5.068 5.068 0 0 0 221.391 16.206 A 4.513 4.513 0 0 0 221.45 16.35 Q 221.6 16.7 221.7 17.1 L 220.7 17.1 L 220.9 17.6 L 221.3 17.6 A 0.881 0.881 0 0 1 221.372 17.81 Q 221.393 17.908 221.398 18.022 A 1.684 1.684 0 0 1 221.4 18.1 L 221.7 19.1 L 222 19.1 A 1.494 1.494 0 0 0 222.014 19.311 Q 222.038 19.475 222.1 19.6 L 222.2 19.6 A 8.239 8.239 0 0 1 222.297 20.035 A 6.538 6.538 0 0 1 222.35 20.35 A 4.954 4.954 0 0 1 222.393 20.807 A 5.966 5.966 0 0 1 222.4 21.1 L 221.1 21.1 L 221.1 21.6 A 1.494 1.494 0 0 0 221.114 21.811 Q 221.138 21.975 221.2 22.1 L 221.8 22.1 Q 221.8 22.6 221.85 23.1 Q 221.9 23.6 221.9 24.1 L 221.9 25.1 L 222.5 25.1 L 222.5 25.6 L 221.9 25.6 L 221.9 26.6 L 220.9 26.6 Q 220.9 26.7 220.85 26.8 A 0.373 0.373 0 0 0 220.824 26.873 Q 220.8 26.963 220.8 27.1 L 221.8 27.1 Q 221.8 27.2 221.75 27.3 A 0.373 0.373 0 0 0 221.724 27.373 Q 221.7 27.463 221.7 27.6 L 226.4 27.6 A 0.881 0.881 0 0 0 226.328 27.81 Q 226.307 27.908 226.302 28.022 A 1.684 1.684 0 0 0 226.3 28.1 L 227.6 28.1 L 227.5 29.1 L 222.9 29.1 Q 222.77 29.491 222.724 29.797 A 2.075 2.075 0 0 0 222.7 30.1 Z M 152.8 64.6 L 154.7 64.6 L 155.4 66.6 L 153.7 66.6 L 153.9 67.1 Q 153.9 67.2 153.95 67.35 A 1.304 1.304 0 0 1 153.976 67.439 Q 153.988 67.485 153.994 67.524 A 0.519 0.519 0 0 1 154 67.6 L 153.4 67.6 L 153.4 67.8 A 2.528 2.528 0 0 1 153.294 68.554 A 1.912 1.912 0 0 1 152.5 69.6 L 152.6 69.6 Q 152.1 70 151.3 70 L 132.8 70 Q 132.1 70 131.65 69.85 A 7.784 7.784 0 0 0 130.84 69.629 A 8.696 8.696 0 0 0 130.7 69.6 Q 130.024 69.262 129.633 68.817 A 2.344 2.344 0 0 1 129.5 68.65 A 5.994 5.994 0 0 1 129.188 68.179 Q 129.012 67.882 128.9 67.6 L 129.4 67.6 L 129.4 67.5 L 129.2 67.1 L 129 66.6 L 130.7 66.6 L 130 64.6 L 128.1 64.6 L 127.8 63.6 L 131.9 63.6 L 131.2 61.6 L 130 61.6 L 129.7 60.9 L 108.2 60.9 L 108 61.6 L 106.8 61.6 L 106.1 63.6 L 105 63.6 L 104.6 64.6 L 104 64.6 L 103.3 66.6 L 103.4 66.6 L 103.2 67.1 L 103.1 67.5 L 103 67.6 L 102.5 67.6 A 4.11 4.11 0 0 1 102.255 68.105 Q 102.103 68.371 101.9 68.65 A 2.617 2.617 0 0 1 101.419 69.148 Q 101.179 69.34 100.875 69.508 A 4.838 4.838 0 0 1 100.7 69.6 L 103.7 69.6 A 16.783 16.783 0 0 0 103.303 69.705 Q 103.066 69.771 102.8 69.85 A 3.279 3.279 0 0 1 102.324 69.953 Q 102.082 69.988 101.805 69.997 A 6.126 6.126 0 0 1 101.6 70 L 83.1 70 A 2.55 2.55 0 0 1 82.65 69.963 Q 82.178 69.878 81.9 69.6 L 78.9 69.6 Q 77.9 68.9 77.9 67.8 L 77.9 67.6 L 78.5 67.6 A 1.494 1.494 0 0 1 78.514 67.389 Q 78.538 67.225 78.6 67.1 L 78.7 66.6 L 78.6 66.6 L 79.3 64.6 L 79.9 64.6 L 80.3 63.6 L 81.4 63.6 L 82.1 61.6 L 83.2 61.6 L 83.9 59.6 L 80 59.6 L 80.4 58.6 L 80.1 58.6 L 80.6 57.1 L 81.6 57.1 L 81.8 56.6 L 79.6 56.6 L 80.3 54.6 L 83.7 54.6 L 84 53.6 L 80.9 53.6 L 81.1 53.1 L 81.6 53.1 L 82.3 51.1 L 82 51.1 L 82.5 49.6 L 82.9 49.6 L 83.6 47.6 L 84.9 47.6 L 85.4 46.1 L 85.6 45.6 L 90.6 45.6 L 90.8 45.1 L 90.5 45.1 L 91 43.6 L 85.4 43.6 L 86.1 41.6 L 87.9 41.6 L 88.1 41.1 L 87 41.1 L 87.2 40.6 L 90.4 40.6 L 91.1 38.6 L 87.2 38.6 L 87.6 37.6 L 89.1 37.6 L 89.8 35.6 L 88.9 35.6 L 89.4 34.1 L 90.5 34.1 L 91.2 32.1 L 90.9 32.1 L 91.1 31.6 L 88.8 31.6 L 89.2 30.6 L 91.4 30.6 L 91.9 29.1 L 90.9 29.1 L 91 28.6 L 92.8 28.6 L 93.5 26.6 L 91.3 26.6 L 91.8 25.1 L 90.7 25.1 L 91 24.1 L 84.1 24.1 L 84.4 23.1 L 83.1 23.1 L 83.8 21.1 L 82.5 21.1 L 83.1 19.6 L 87 19.6 L 87.7 17.6 L 97.7 17.6 L 98.2 16.1 L 93.4 16.1 L 93.8 15.1 L 97.5 15.1 L 98.2 13.1 L 94.9 13.1 L 95.4 11.6 L 97.5 11.6 L 98.2 9.6 L 97.9 9.6 L 98.6 7.6 L 95.8 7.6 L 95.9 7.1 L 105.5 7.1 L 106.2 5.1 L 105.9 5.1 L 106.1 4.6 L 102.6 4.6 L 103 3.3 L 103.3 2.6 L 104.3 2.6 L 104.9 1.6 L 104.6 1.6 A 3.427 3.427 0 0 1 105.429 0.789 A 4.462 4.462 0 0 1 106 0.45 Q 106.816 0.043 107.96 0.004 A 7.194 7.194 0 0 1 108.2 0 L 129.9 0 A 6.245 6.245 0 0 1 130.89 0.075 Q 131.566 0.183 132.1 0.45 Q 133 0.9 133.5 1.6 L 133.9 1.6 L 134.5 2.6 L 133.5 2.6 Q 133.638 2.876 133.681 3.104 A 1.064 1.064 0 0 1 133.7 3.3 L 134.2 4.6 L 137.7 4.6 L 137.8 5.1 L 138.1 5.1 L 138.8 7.1 L 129.3 7.1 L 129.5 7.6 L 132.3 7.6 L 133 9.6 L 133.3 9.6 L 134 11.6 L 131.9 11.6 L 132.4 13.1 L 135.7 13.1 L 136.4 15.1 L 132.7 15.1 L 133.1 16.1 L 137.9 16.1 L 138.4 17.6 L 128.4 17.6 L 129.1 19.6 L 125.2 19.6 L 125.7 21.1 L 126.9 21.1 L 127.6 23.1 L 123.7 23.1 L 124.1 24.1 L 140 24.1 L 140.3 25.1 L 139.5 25.1 L 140 26.6 L 138 26.6 L 138.7 28.6 L 136.3 28.6 L 136.4 29.1 L 140 29.1 L 140.5 30.6 L 140.6 30.6 L 141 31.6 L 137.7 31.6 L 137.9 32.1 L 141.1 32.1 L 141.8 34.1 L 142.9 34.1 L 143.4 35.6 L 143.1 35.6 L 143.8 37.6 L 145.4 37.6 L 145.8 38.6 L 142.9 38.6 L 143.6 40.6 L 145.6 40.6 L 145.7 41.1 L 145.2 41.1 L 145.4 41.6 L 143.6 41.6 L 144.2 43.6 L 149.9 43.6 L 150.4 45.1 L 150.7 45.1 L 150.9 45.6 L 145.8 45.6 L 146 46.1 L 146.1 46.1 L 146.6 47.6 L 145.3 47.6 L 146 49.6 L 145.5 49.6 L 146.1 51.1 L 146.4 51.1 L 147.1 53.1 L 146.6 53.1 L 146.8 53.6 L 149.9 53.6 L 150.3 54.6 L 146.8 54.6 L 147.5 56.6 L 149.7 56.6 L 149.9 57.1 L 148.9 57.1 L 149.5 58.6 L 149.7 58.6 L 150.1 59.6 L 154 59.6 L 154.7 61.6 L 155.9 61.6 L 156.6 63.6 L 152.5 63.6 L 152.8 64.6 Z M 326.7 20.6 L 314.7 20.6 L 314.7 22.1 L 317.5 22.1 L 317.5 23.7 L 333.7 23.7 L 333.7 22.1 L 337 22.1 L 337 20.6 L 345 20.6 L 345 18.6 L 346.5 18.6 L 346.5 17.1 L 338 17.1 L 338 16.6 L 349 16.6 L 349 14.6 L 341.5 14.6 L 341.5 13.6 L 343.1 13.6 L 343.1 13.1 L 339.9 13.1 L 339.9 12.1 L 347.7 12.1 L 347.7 11.1 L 336.9 11.1 L 336.9 9.1 L 346.3 9.1 L 346.3 7.6 L 342.4 7.6 L 342.4 6.1 L 343.6 6.1 L 343.6 5.1 L 346.3 5.1 L 346.3 4.6 L 344.9 4.6 L 344.9 3.6 L 344.4 3.6 L 344.4 2.7 Q 344.4 2.232 344.576 1.675 A 4.943 4.943 0 0 1 344.6 1.6 L 357.5 1.6 A 8.403 8.403 0 0 1 357.75 1.245 A 7.027 7.027 0 0 1 357.9 1.05 A 5.849 5.849 0 0 1 358.15 0.757 A 4.855 4.855 0 0 1 358.3 0.6 L 331.7 0.6 Q 332.2 1 332.5 1.6 L 326.1 1.6 A 0.851 0.851 0 0 1 326.197 1.809 Q 326.3 2.125 326.3 2.7 L 326.3 3.6 L 326.6 3.6 L 326.6 4.6 L 325.2 4.6 L 325.2 5.1 L 327.7 5.1 L 327.7 6.1 L 329.5 6.1 L 329.5 7.6 L 325.7 7.6 L 325.7 9.1 L 319.4 9.1 L 319.4 11.1 L 322.9 11.1 L 322.9 12.1 L 325.8 12.1 L 325.8 13.1 L 327.7 13.1 L 327.7 13.6 L 333.1 13.6 L 333.1 14.6 L 328.6 14.6 L 328.6 16.6 L 334.1 16.6 L 334.1 17.1 L 327.7 17.1 L 327.7 18.6 L 326.7 18.6 L 326.7 20.6 Z M 49.3 22.6 L 50.4 22.6 Q 49.8 21.7 48.9 21.1 L 40.8 21.1 A 8.248 8.248 0 0 0 37.302 19.657 A 11.142 11.142 0 0 0 35.4 19.5 L 29.4 19.5 L 29.4 21.1 L 33.7 21.1 L 33.7 22.6 L 34.5 22.6 L 34.5 23.6 L 34.7 23.6 L 34.7 24.6 L 29.9 24.6 L 29.9 26.1 L 38.7 26.1 L 38.7 27.6 L 27.3 27.6 L 27.3 29.6 L 31.7 29.6 L 31.7 31.6 L 33.9 31.6 L 33.9 32.1 L 40.6 32.1 L 40.6 34.1 L 38.4 34.1 L 38.4 35.6 L 36.1 35.6 L 36.1 37.6 L 34.5 37.6 L 34.5 38.6 L 33 38.6 L 33 39.6 L 30.4 39.6 L 30.4 41.6 L 26.3 41.6 L 26.3 42.6 L 25 42.6 L 25 44.1 L 25.4 44.1 L 25.4 46.1 L 36.9 46.1 L 36.9 47.1 L 34.3 47.1 L 34.3 48.1 L 34.4 48.1 L 34.4 49.1 L 35.8 49.1 L 35.8 50.5 L 42.3 50.5 A 9.975 9.975 0 0 0 44.626 50.242 A 7.476 7.476 0 0 0 47.2 49.1 L 45.6 49.1 Q 45.9 48.9 46.2 48.65 A 2.652 2.652 0 0 0 46.601 48.238 A 2.381 2.381 0 0 0 46.7 48.1 L 36.3 48.1 A 5.087 5.087 0 0 0 36.55 47.831 A 6.126 6.126 0 0 0 36.7 47.65 Q 36.9 47.4 37 47.1 L 49 47.1 Q 49.2 46.9 49.3 46.65 Q 49.4 46.4 49.5 46.1 L 51.8 46.1 A 5.715 5.715 0 0 0 52.094 45.132 A 5.316 5.316 0 0 0 52.1 45.1 L 52.3 44.1 L 50.8 44.1 A 3.473 3.473 0 0 0 50.879 43.678 A 2.713 2.713 0 0 0 50.9 43.35 A 2.785 2.785 0 0 1 50.932 42.941 A 3.572 3.572 0 0 1 51 42.6 L 47.3 42.6 L 47.3 42.4 Q 47.3 42.2 47.35 42 Q 47.4 41.8 47.4 41.6 L 47.2 41.6 L 47.2 40.55 A 5.109 5.109 0 0 1 47.217 40.128 Q 47.241 39.838 47.3 39.6 L 49.1 39.6 L 49.1 38.6 L 49.7 38.6 L 49.8 37.6 L 55.4 37.6 L 55.4 35.6 L 49.5 35.6 L 49.5 34.1 L 49.1 34.1 L 49.1 32.1 L 50.5 32.1 L 50.5 31.6 L 46.8 31.6 L 46.8 29.6 L 44.6 29.6 L 44.6 28.6 Q 44.6 28.1 44.5 27.6 L 53.9 27.6 L 53.9 27.5 A 5.693 5.693 0 0 0 53.88 27.02 A 4.731 4.731 0 0 0 53.85 26.75 Q 53.8 26.4 53.8 26.1 L 50.1 26.1 Q 50 25.7 49.9 25.35 Q 49.8 25 49.7 24.6 L 47.6 24.6 Q 47.5 24.3 47.4 24.05 Q 47.3 23.8 47.2 23.6 L 49.9 23.6 A 2.838 2.838 0 0 0 49.713 23.162 A 2.529 2.529 0 0 0 49.65 23.05 Q 49.5 22.8 49.3 22.6 Z M 486.4 22.6 L 487.5 22.6 Q 486.9 21.7 486 21.1 L 477.9 21.1 A 8.248 8.248 0 0 0 474.402 19.657 A 11.142 11.142 0 0 0 472.5 19.5 L 466.5 19.5 L 466.5 21.1 L 470.8 21.1 L 470.8 22.6 L 471.6 22.6 L 471.6 23.6 L 471.8 23.6 L 471.8 24.6 L 467 24.6 L 467 26.1 L 475.8 26.1 L 475.8 27.6 L 464.4 27.6 L 464.4 29.6 L 468.8 29.6 L 468.8 31.6 L 471 31.6 L 471 32.1 L 477.7 32.1 L 477.7 34.1 L 475.5 34.1 L 475.5 35.6 L 473.2 35.6 L 473.2 37.6 L 471.6 37.6 L 471.6 38.6 L 470.1 38.6 L 470.1 39.6 L 467.5 39.6 L 467.5 41.6 L 463.4 41.6 L 463.4 42.6 L 462.1 42.6 L 462.1 44.1 L 462.5 44.1 L 462.5 46.1 L 474 46.1 L 474 47.1 L 471.4 47.1 L 471.4 48.1 L 471.5 48.1 L 471.5 49.1 L 472.9 49.1 L 472.9 50.5 L 479.4 50.5 A 9.975 9.975 0 0 0 481.726 50.242 A 7.476 7.476 0 0 0 484.3 49.1 L 482.7 49.1 Q 483 48.9 483.3 48.65 A 2.652 2.652 0 0 0 483.701 48.238 A 2.381 2.381 0 0 0 483.8 48.1 L 473.4 48.1 A 5.087 5.087 0 0 0 473.65 47.831 A 6.126 6.126 0 0 0 473.8 47.65 Q 474 47.4 474.1 47.1 L 486.1 47.1 Q 486.3 46.9 486.4 46.65 Q 486.5 46.4 486.6 46.1 L 488.9 46.1 A 5.715 5.715 0 0 0 489.194 45.132 A 5.316 5.316 0 0 0 489.2 45.1 L 489.4 44.1 L 487.9 44.1 A 3.473 3.473 0 0 0 487.979 43.678 A 2.713 2.713 0 0 0 488 43.35 A 2.785 2.785 0 0 1 488.032 42.941 A 3.572 3.572 0 0 1 488.1 42.6 L 484.4 42.6 L 484.4 42.4 Q 484.4 42.2 484.45 42 Q 484.5 41.8 484.5 41.6 L 484.3 41.6 L 484.3 40.55 A 5.109 5.109 0 0 1 484.317 40.128 Q 484.341 39.838 484.4 39.6 L 486.2 39.6 L 486.2 38.6 L 486.8 38.6 L 486.9 37.6 L 492.5 37.6 L 492.5 35.6 L 486.6 35.6 L 486.6 34.1 L 486.2 34.1 L 486.2 32.1 L 487.6 32.1 L 487.6 31.6 L 483.9 31.6 L 483.9 29.6 L 481.7 29.6 L 481.7 28.6 Q 481.7 28.1 481.6 27.6 L 491 27.6 L 491 27.5 A 5.693 5.693 0 0 0 490.98 27.02 A 4.731 4.731 0 0 0 490.95 26.75 Q 490.9 26.4 490.9 26.1 L 487.2 26.1 Q 487.1 25.7 487 25.35 Q 486.9 25 486.8 24.6 L 484.7 24.6 Q 484.6 24.3 484.5 24.05 Q 484.4 23.8 484.3 23.6 L 487 23.6 A 2.838 2.838 0 0 0 486.813 23.162 A 2.529 2.529 0 0 0 486.75 23.05 Q 486.6 22.8 486.4 22.6 Z M 349.6 52.6 L 349.6 51.6 L 338.6 51.6 L 338.6 50.1 L 335 50.1 L 335 49.6 L 321.3 49.6 L 321.3 50.1 L 328.5 50.1 L 328.5 51.6 L 327 51.6 L 327 52.6 L 323.8 52.6 L 323.8 54.6 L 322.8 54.6 L 322.8 55.1 L 327.5 55.1 L 327.5 56.6 L 330.3 56.6 L 330.3 57.1 L 326.3 57.1 L 326.3 58.6 L 320.6 58.6 L 320.6 60.6 L 348.2 60.6 L 348.2 58.6 L 347.2 58.6 L 347.2 57.1 L 346.8 57.1 L 346.8 56.6 L 337 56.6 L 337 55.1 L 343.6 55.1 L 343.6 54.6 L 343.9 54.6 L 343.9 52.6 L 349.6 52.6 Z M 355.7 48.1 L 356.1 48.1 L 356.1 47.1 L 348.3 47.1 L 348.3 46.6 L 344.3 46.6 L 344.3 45.7 L 328.1 45.7 L 328.1 46.6 L 338.5 46.6 L 338.5 47.1 L 317.2 47.1 L 317.2 48.1 L 339.8 48.1 L 339.8 49.6 L 355.7 49.6 L 355.7 48.1 Z M 191.1 53.6 L 190.8 53.1 L 190.6 52.6 L 184.4 52.6 L 184.4 53.1 L 185 53.1 L 185 53.6 L 185.1 53.6 L 185.1 55.1 L 189.5 55.1 L 189.5 57.1 L 181.8 57.1 L 181.8 58.6 L 187.5 58.6 L 187.5 60.1 L 184 60.1 L 184 61.6 L 186.1 61.6 L 186.1 62.6 L 179.8 62.6 L 179.8 63.1 L 193.9 63.1 L 193.6 62.6 L 193.9 62.6 L 193.4 61.6 L 192.6 61.6 L 192 60.1 L 191.3 58.6 L 194.5 58.6 L 193.8 57.1 L 200.3 57.1 L 199.4 55.1 L 189.5 55.1 L 188.9 53.6 L 191.1 53.6 Z M 182.7 27.6 L 182.7 28.1 L 192.6 28.1 L 192.6 29.1 L 185.4 29.1 L 185.4 29.2 L 192.7 29.2 A 7.958 7.958 0 0 0 193.108 29.191 Q 193.525 29.169 193.8 29.1 L 198.4 29.1 Q 199.5 28.8 200.4 28.1 L 199 28.1 L 199.5 27.6 L 194.8 27.6 A 4.09 4.09 0 0 0 194.953 27.44 Q 195.09 27.286 195.164 27.165 A 0.894 0.894 0 0 0 195.2 27.1 L 194.2 27.1 L 194.5 26.6 L 195.5 26.6 L 195.8 25.6 L 196.3 25.6 A 0.881 0.881 0 0 0 196.372 25.391 Q 196.393 25.293 196.398 25.179 A 1.684 1.684 0 0 0 196.4 25.1 L 195.8 25.1 L 195.9 24.1 Q 195.9 23.1 195.6 22.1 L 195 22.1 Q 194.918 21.936 194.869 21.703 A 2.598 2.598 0 0 1 194.85 21.6 A 0.95 0.95 0 0 0 194.743 21.289 A 0.862 0.862 0 0 0 194.6 21.1 L 196 21.1 A 5.559 5.559 0 0 0 195.231 19.957 A 6.58 6.58 0 0 0 194.9 19.6 L 194.7 19.6 A 2.668 2.668 0 0 0 194.003 19.102 A 2.842 2.842 0 0 0 194 19.1 L 193.7 19.1 Q 192.7 18.6 191.6 18.6 L 184.3 18.6 L 184.3 19.1 L 184 19.1 L 184 19.6 L 184.4 19.6 L 184.4 21.1 L 183.9 21.1 L 183.9 22.1 L 184.4 22.1 L 184.4 24.1 L 184 24.1 L 184 25.6 L 184.2 25.6 L 184.2 26.6 L 184.1 26.6 L 184.1 27.1 L 183.2 27.1 L 183.2 27.6 L 182.7 27.6 Z M 113.4 40.6 L 110.2 40.6 L 110 41.1 L 111.1 41.1 L 111 41.4 L 122.3 41.4 L 122.2 41.1 L 122.7 41.1 L 122.6 40.6 L 120.6 40.6 L 120 38.6 L 122.9 38.6 L 122.6 37.6 L 120.9 37.6 L 120.3 35.6 L 120.6 35.6 L 120.2 34.1 L 119.1 34.1 L 118.5 32.1 L 115.3 32.1 L 115.1 31.6 L 118.4 31.6 L 118.1 30.6 L 118 30.6 L 117.5 29.1 L 114.3 29.1 L 113.9 30.6 L 111.7 30.6 L 111.4 31.6 L 113.6 31.6 L 113.5 32.1 L 113.8 32.1 L 113.2 34.1 L 112.1 34.1 L 111.6 35.6 L 112.5 35.6 L 111.9 37.6 L 110.4 37.6 L 110.1 38.6 L 114 38.6 L 113.4 40.6 Z M 252.5 61.1 L 252.5 62.6 L 265.9 62.6 L 265.1 61.1 L 264.4 61.1 L 263.3 59.1 L 263.1 59.1 L 262.6 58.1 L 262.5 58.1 L 261.4 56.1 L 263.2 56.1 L 262.1 54.1 L 260.3 54.1 L 259.4 52.6 L 258.6 52.6 L 258.1 51.6 L 258.3 51.6 L 257.1 49.6 L 256.3 49.6 L 256.3 51.6 L 255.2 51.6 L 255.2 52.6 L 254.6 52.6 L 254.6 54.1 L 255.4 54.1 L 255.4 56.1 L 255.6 56.1 L 255.6 58.1 L 255.9 58.1 L 255.9 59.1 L 254.3 59.1 L 254.3 61.1 L 252.5 61.1 Z M 246.3 46.6 L 246.3 47.1 L 247.2 47.1 L 247.2 48.1 L 255.1 48.1 L 254.5 47.1 L 255.5 47.1 L 255.2 46.6 L 246.3 46.6 Z M 255.7 14.6 L 255.7 16.1 L 257.8 16.1 L 257.8 16.6 L 260.1 16.6 L 260.4 16.1 L 259 16.1 L 259.8 14.6 L 259.7 14.6 L 260 14.1 L 259.1 14.1 L 259.6 13.1 L 256.4 13.1 L 256.4 14.1 L 255.1 14.1 L 255.1 14.6 L 255.7 14.6 Z M 185.1 51.1 L 190.6 51.1 L 190.2 50.1 L 189.1 50.1 L 188.3 48.2 L 184.2 48.2 L 184.2 50.1 L 185.1 50.1 L 185.1 51.1 Z M 547.1 22.1 L 553.2 22.1 L 553.7 21.1 L 551.5 21.1 L 551.7 20.6 L 548.4 20.6 L 548.7 21.1 L 546.6 21.1 L 547.1 22.1 Z M 113.2 24.1 L 112.9 25.1 L 114.1 25.1 L 113.6 26.6 L 117.7 26.6 L 117.2 25.1 L 118 25.1 L 117.7 24.1 L 113.2 24.1 Z M 183 51.1 L 181.7 51.1 L 181.7 52.6 L 183.6 52.6 L 183 51.1 Z M 115.2 28.6 L 116.2 28.6 L 115.7 26.9 L 115.2 28.6 Z M 255.9 22.5 L 256.4 21.6 L 255.9 21.6 L 255.9 22.5 Z M 257.7 45.9 L 257.7 46.6 L 258 46.6 L 257.7 45.9 Z" vector-effect="non-scaling-stroke"/></g></svg>