<svg width="87.3" height="70" viewBox="0 0 87.3 70" xmlns="http://www.w3.org/2000/svg"><g id="svgGroup" stroke-linecap="round" fill-rule="evenodd" font-size="9pt" stroke="#00000000" stroke-width="0.25mm" fill="#ffffff" style="stroke:#00000000;stroke-width:0.25mm;fill:#ffffff"><path d="M 67.7 15.6 L 85.7 15.6 A 16.11 16.11 0 0 0 85.975 16.127 A 13.775 13.775 0 0 0 86.1 16.35 Q 86.3 16.7 86.4 17.1 L 82.7 17.1 Q 82.9 17.5 83.1 18.05 Q 83.3 18.6 83.5 19.1 L 67.8 19.1 L 68.4 21.1 L 76.5 21.1 L 76.8 22.6 L 75.7 22.6 A 0.881 0.881 0 0 1 75.772 22.81 Q 75.793 22.908 75.798 23.022 A 1.684 1.684 0 0 1 75.8 23.1 A 1.494 1.494 0 0 0 75.814 23.311 Q 75.838 23.475 75.9 23.6 L 73.2 23.6 L 73.3 24.6 L 75.4 24.6 A 5.693 5.693 0 0 0 75.42 25.081 A 4.731 4.731 0 0 0 75.45 25.35 A 4.954 4.954 0 0 1 75.493 25.807 A 5.966 5.966 0 0 1 75.5 26.1 L 79.2 26.1 A 3.947 3.947 0 0 1 79.261 26.386 Q 79.3 26.613 79.3 26.8 L 79.3 27.5 L 79.3 27.6 L 69.9 27.6 Q 69.9 28.1 69.95 28.6 Q 70 29.1 70 29.6 L 72.1 29.6 Q 72.1 30.1 72.15 30.6 Q 72.2 31.1 72.2 31.6 L 75.8 31.6 L 75.8 32.1 L 74.4 32.1 L 74.4 34.1 L 74.8 34.1 L 74.8 35.6 L 80.7 35.6 L 80.7 37.6 L 75.1 37.6 L 75.1 38.6 L 74.5 38.6 L 74.5 39.1 A 1.494 1.494 0 0 1 74.486 39.311 Q 74.463 39.475 74.4 39.6 L 72.6 39.6 L 72.6 41.6 L 72.8 41.6 A 1.634 1.634 0 0 0 72.743 41.83 Q 72.7 42.072 72.7 42.4 L 72.7 42.6 L 76.4 42.6 A 5.693 5.693 0 0 1 76.38 43.081 A 4.731 4.731 0 0 1 76.35 43.35 A 4.954 4.954 0 0 0 76.307 43.807 A 5.966 5.966 0 0 0 76.3 44.1 L 77.8 44.1 Q 77.8 44.6 77.75 45.1 Q 77.7 45.6 77.6 46.1 L 75.4 46.1 A 0.881 0.881 0 0 0 75.328 46.31 Q 75.307 46.408 75.302 46.522 A 1.684 1.684 0 0 0 75.3 46.6 A 1.494 1.494 0 0 1 75.286 46.811 Q 75.263 46.975 75.2 47.1 L 63.2 47.1 Q 63.2 47.369 63.11 47.728 A 5.165 5.165 0 0 1 63 48.1 L 73.5 48.1 Q 73.37 48.491 73.324 48.797 A 2.075 2.075 0 0 0 73.3 49.1 L 74.8 49.1 A 8.239 8.239 0 0 0 74.703 49.535 A 6.538 6.538 0 0 0 74.65 49.85 Q 74.603 50.178 74.424 50.551 A 3.494 3.494 0 0 1 74.4 50.6 L 74.1 51.6 L 71.2 51.6 L 71 52.1 L 75.7 52.1 A 7.069 7.069 0 0 0 75.632 52.24 Q 75.5 52.519 75.5 52.6 L 72.5 52.6 L 72.3 53.1 L 72.2 53.1 L 71.8 54.1 A 6.84 6.84 0 0 1 71.409 54.913 A 7.737 7.737 0 0 1 71.3 55.1 L 69.8 55.1 L 68.7 57.1 L 70.4 57.1 L 69.8 58.1 L 69.9 58.1 A 2.696 2.696 0 0 0 69.712 58.31 Q 69.62 58.424 69.528 58.559 A 4.572 4.572 0 0 0 69.5 58.6 A 4.019 4.019 0 0 1 69.325 58.844 Q 69.23 58.965 69.135 59.064 A 2.339 2.339 0 0 1 69.1 59.1 L 68.4 59.1 A 4.09 4.09 0 0 0 68.247 59.261 Q 68.11 59.415 68.036 59.536 A 0.894 0.894 0 0 0 68 59.6 Q 67.7 60 67.4 60.35 Q 67.1 60.7 66.7 61.1 L 66.4 61.1 Q 65.9 61.6 65.35 62.1 Q 64.8 62.6 64.2 63.1 L 65.1 63.1 L 63 64.6 L 63.1 64.6 Q 62.3 65.1 61.4 65.6 Q 60.5 66.1 59.5 66.6 L 59.4 66.6 A 13.901 13.901 0 0 1 58.58 66.975 Q 57.838 67.288 56.9 67.6 L 57 67.6 Q 55 68.3 52.8 68.8 Q 50.6 69.3 48.3 69.6 L 50.4 69.6 Q 48.8 69.8 47.1 69.9 A 59.468 59.468 0 0 1 43.712 70 A 64.669 64.669 0 0 1 43.6 70 L 14.3 70 Q 13.665 70 13.229 69.801 A 1.565 1.565 0 0 1 12.9 69.6 L 10.8 69.6 A 2.375 2.375 0 0 1 9.776 68.325 A 3.64 3.64 0 0 1 9.6 67.6 L 9.5 67.6 L 9.5 66.6 L 9.7 66.6 L 9.7 64.6 L 9.5 64.6 L 9.5 63.1 L 8.7 63.1 L 8.7 61.1 L 9 61.1 L 9 59.6 L 8.9 59.6 L 8.9 59.1 L 9.7 59.1 L 9.7 58.1 L 9.6 58.1 L 9.6 57.1 L 7.8 57.1 L 7.8 55.1 L 9.4 55.1 L 9.4 53.1 L 9.5 53.1 L 9.5 52.6 L 12.5 52.6 L 12.5 52.1 L 7.9 52.1 L 7.9 51.6 L 10.8 51.6 L 10.8 49.1 L 9.4 49.1 L 9.4 48.1 L 9.3 48.1 L 9.3 47.1 L 11.9 47.1 L 11.9 46.1 L 0.4 46.1 L 0.4 44.1 L 0 44.1 L 0 42.6 L 1.3 42.6 L 1.3 41.6 L 5.4 41.6 L 5.4 39.6 L 8 39.6 L 8 38.6 L 9.5 38.6 L 9.5 37.6 L 11.1 37.6 L 11.1 35.6 L 13.4 35.6 L 13.4 34.1 L 15.6 34.1 L 15.6 32.1 L 8.9 32.1 L 8.9 31.6 L 6.7 31.6 L 6.7 29.6 L 2.3 29.6 L 2.3 27.6 L 13.7 27.6 L 13.7 26.1 L 4.9 26.1 L 4.9 24.6 L 9.7 24.6 L 9.7 23.6 L 9.5 23.6 L 9.5 22.6 L 8.7 22.6 L 8.7 21.1 L 4.4 21.1 L 4.4 19.1 L 20 19.1 L 20 17.1 L 23.7 17.1 L 23.7 15.6 L 5.7 15.6 L 5.7 13.6 L 17.5 13.6 L 17.5 13.1 L 8.2 13.1 L 8.2 12.6 L 27.1 12.6 L 27.1 10.6 L 24.7 10.6 L 24.7 10.1 L 0.9 10.1 L 0.9 8.1 L 3.8 8.1 L 3.8 6.6 L 10 6.6 L 10 6.1 L 13.3 6.1 L 13.3 5.1 L 11.5 5.1 L 11.5 4.6 L 9.4 4.6 L 9.4 3.6 L 9.6 3.6 L 9.6 2.7 A 1.359 1.359 0 0 1 9.61 2.535 Q 9.622 2.435 9.65 2.35 A 1.304 1.304 0 0 0 9.676 2.261 Q 9.688 2.216 9.694 2.176 A 0.519 0.519 0 0 0 9.7 2.1 L 10.1 2.1 Q 10.521 0.334 12.144 0.053 A 3.853 3.853 0 0 1 12.8 0 L 41.6 0 A 48.867 48.867 0 0 1 49.711 0.646 A 39.118 39.118 0 0 1 55.6 2.1 L 55.2 2.1 A 31.747 31.747 0 0 1 57.839 3.118 A 37.057 37.057 0 0 1 58.9 3.6 L 58.7 3.6 A 23.271 23.271 0 0 1 59.345 3.87 A 27.627 27.627 0 0 1 59.75 4.05 Q 60.3 4.3 60.7 4.6 L 62.8 4.6 L 63.7 5.1 L 65.4 5.1 A 3.377 3.377 0 0 1 65.889 5.341 A 2.669 2.669 0 0 1 66.25 5.6 Q 66.6 5.9 67 6.1 L 63.7 6.1 L 64.1 6.3 Q 64.3 6.4 64.4 6.6 L 58.2 6.6 L 60.1 8.1 L 57.1 8.1 Q 58.2 9 59.1 10.1 L 82.9 10.1 L 83.1 10.3 A 0.731 0.731 0 0 1 83.169 10.381 Q 83.202 10.425 83.234 10.48 A 1.826 1.826 0 0 1 83.3 10.6 L 85.8 10.6 A 7.004 7.004 0 0 1 86.225 11.068 A 9.236 9.236 0 0 1 86.6 11.55 A 15.857 15.857 0 0 1 87.018 12.153 A 12.581 12.581 0 0 1 87.3 12.6 L 68.4 12.6 L 68.6 12.8 A 0.731 0.731 0 0 1 68.669 12.881 Q 68.702 12.925 68.734 12.98 A 1.826 1.826 0 0 1 68.8 13.1 L 78.1 13.1 L 78.4 13.6 L 66.6 13.6 A 10.669 10.669 0 0 1 67.358 14.85 A 8.857 8.857 0 0 1 67.7 15.6 Z M 49.3 22.6 L 50.4 22.6 Q 49.8 21.7 48.9 21.1 L 40.8 21.1 A 8.248 8.248 0 0 0 37.302 19.657 A 11.142 11.142 0 0 0 35.4 19.5 L 29.4 19.5 L 29.4 21.1 L 33.7 21.1 L 33.7 22.6 L 34.5 22.6 L 34.5 23.6 L 34.7 23.6 L 34.7 24.6 L 29.9 24.6 L 29.9 26.1 L 38.7 26.1 L 38.7 27.6 L 27.3 27.6 L 27.3 29.6 L 31.7 29.6 L 31.7 31.6 L 33.9 31.6 L 33.9 32.1 L 40.6 32.1 L 40.6 34.1 L 38.4 34.1 L 38.4 35.6 L 36.1 35.6 L 36.1 37.6 L 34.5 37.6 L 34.5 38.6 L 33 38.6 L 33 39.6 L 30.4 39.6 L 30.4 41.6 L 26.3 41.6 L 26.3 42.6 L 25 42.6 L 25 44.1 L 25.4 44.1 L 25.4 46.1 L 36.9 46.1 L 36.9 47.1 L 34.3 47.1 L 34.3 48.1 L 34.4 48.1 L 34.4 49.1 L 35.8 49.1 L 35.8 50.5 L 42.3 50.5 A 9.975 9.975 0 0 0 44.626 50.242 A 7.476 7.476 0 0 0 47.2 49.1 L 45.6 49.1 Q 45.9 48.9 46.2 48.65 A 2.652 2.652 0 0 0 46.601 48.238 A 2.381 2.381 0 0 0 46.7 48.1 L 36.3 48.1 A 5.087 5.087 0 0 0 36.55 47.831 A 6.126 6.126 0 0 0 36.7 47.65 Q 36.9 47.4 37 47.1 L 49 47.1 Q 49.2 46.9 49.3 46.65 Q 49.4 46.4 49.5 46.1 L 51.8 46.1 A 5.715 5.715 0 0 0 52.094 45.132 A 5.316 5.316 0 0 0 52.1 45.1 L 52.3 44.1 L 50.8 44.1 A 3.473 3.473 0 0 0 50.879 43.678 A 2.713 2.713 0 0 0 50.9 43.35 A 2.785 2.785 0 0 1 50.932 42.941 A 3.572 3.572 0 0 1 51 42.6 L 47.3 42.6 L 47.3 42.4 Q 47.3 42.2 47.35 42 Q 47.4 41.8 47.4 41.6 L 47.2 41.6 L 47.2 40.55 A 5.109 5.109 0 0 1 47.217 40.128 Q 47.241 39.838 47.3 39.6 L 49.1 39.6 L 49.1 38.6 L 49.7 38.6 L 49.8 37.6 L 55.4 37.6 L 55.4 35.6 L 49.5 35.6 L 49.5 34.1 L 49.1 34.1 L 49.1 32.1 L 50.5 32.1 L 50.5 31.6 L 46.8 31.6 L 46.8 29.6 L 44.6 29.6 L 44.6 28.6 Q 44.6 28.1 44.5 27.6 L 53.9 27.6 L 53.9 27.5 A 5.693 5.693 0 0 0 53.88 27.02 A 4.731 4.731 0 0 0 53.85 26.75 Q 53.8 26.4 53.8 26.1 L 50.1 26.1 Q 50 25.7 49.9 25.35 Q 49.8 25 49.7 24.6 L 47.6 24.6 Q 47.5 24.3 47.4 24.05 Q 47.3 23.8 47.2 23.6 L 49.9 23.6 A 2.838 2.838 0 0 0 49.713 23.162 A 2.529 2.529 0 0 0 49.65 23.05 Q 49.5 22.8 49.3 22.6 Z" vector-effect="non-scaling-stroke"/></g></svg>