<svg width="562.701" height="70.001" viewBox="0 0 562.701 70.001" xmlns="http://www.w3.org/2000/svg"><g id="svgGroup" stroke-linecap="round" fill-rule="evenodd" font-size="9pt" stroke="#00000000" stroke-width="0.25mm" fill="#ffffff" style="stroke:#00000000;stroke-width:0.25mm;fill:#ffffff"><path d="M 18.9 70.001 L 2.6 70.001 A 2.646 2.646 0 0 1 0.863 69.355 A 3.374 3.374 0 0 1 0.8 69.301 A 2.301 2.301 0 0 1 0.022 67.781 A 3.261 3.261 0 0 1 0 67.401 L 0 2.601 Q 0 1.501 0.8 0.751 A 2.89 2.89 0 0 1 1.567 0.225 A 2.442 2.442 0 0 1 2.6 0.001 L 18.9 0.001 A 2.659 2.659 0 0 1 19.942 0.2 A 2.52 2.52 0 0 1 20.75 0.751 A 2.508 2.508 0 0 1 21.5 2.567 A 3.201 3.201 0 0 1 21.5 2.601 L 21.5 25.201 L 41.9 25.201 L 41.9 2.601 Q 41.9 1.501 42.7 0.751 A 2.89 2.89 0 0 1 43.467 0.225 A 2.442 2.442 0 0 1 44.5 0.001 L 60.8 0.001 A 2.659 2.659 0 0 1 61.842 0.2 A 2.52 2.52 0 0 1 62.65 0.751 A 2.508 2.508 0 0 1 63.4 2.567 A 3.201 3.201 0 0 1 63.4 2.601 L 63.4 67.401 A 2.659 2.659 0 0 1 63.201 68.442 A 2.52 2.52 0 0 1 62.65 69.251 A 2.508 2.508 0 0 1 60.835 70.001 A 3.201 3.201 0 0 1 60.8 70.001 L 44.5 70.001 Q 43.5 70.001 42.7 69.251 Q 41.9 68.501 41.9 67.401 L 41.9 44.201 L 21.5 44.201 L 21.5 67.401 A 2.659 2.659 0 0 1 21.301 68.442 A 2.52 2.52 0 0 1 20.75 69.251 A 2.508 2.508 0 0 1 18.935 70.001 A 3.201 3.201 0 0 1 18.9 70.001 Z" id="0" vector-effect="non-scaling-stroke"/><path d="M 128.3 70.001 L 78.5 70.001 Q 77.5 70.001 76.7 69.251 Q 75.9 68.501 75.9 67.401 L 75.9 2.601 Q 75.9 1.501 76.7 0.751 A 2.89 2.89 0 0 1 77.467 0.225 A 2.442 2.442 0 0 1 78.5 0.001 L 127.5 0.001 Q 128.6 0.001 129.4 0.751 Q 130.2 1.501 130.2 2.601 L 130.2 14.401 A 2.381 2.381 0 0 1 129.672 15.894 A 3.272 3.272 0 0 1 129.4 16.201 A 2.711 2.711 0 0 1 128.443 16.834 A 2.634 2.634 0 0 1 127.5 17.001 L 96.6 17.001 L 96.6 26.901 L 125.3 26.901 Q 126.4 26.901 127.2 27.651 Q 128 28.401 128 29.501 L 128 40.301 Q 128 41.401 127.2 42.151 Q 126.4 42.901 125.3 42.901 L 96.6 42.901 L 96.6 53.001 L 128.3 53.001 A 2.591 2.591 0 0 1 130.175 53.776 A 3.269 3.269 0 0 1 130.2 53.801 A 2.711 2.711 0 0 1 130.833 54.758 A 2.634 2.634 0 0 1 131 55.701 L 131 67.401 Q 131 68.501 130.2 69.251 Q 129.4 70.001 128.3 70.001 Z" id="1" vector-effect="non-scaling-stroke"/><path d="M 171.7 70.001 L 143.8 70.001 Q 142.8 70.001 142 69.251 Q 141.2 68.501 141.2 67.401 L 141.2 2.601 Q 141.2 1.501 142 0.751 A 2.89 2.89 0 0 1 142.767 0.225 A 2.442 2.442 0 0 1 143.8 0.001 L 171.2 0.001 A 50.302 50.302 0 0 1 179.19 0.604 Q 184.007 1.379 188 3.151 Q 195.1 6.301 199.2 12.401 Q 203.3 18.501 203.6 27.401 A 206.306 206.306 0 0 1 203.737 30.972 Q 203.785 32.601 203.796 34.053 A 115.998 115.998 0 0 1 203.8 35.001 Q 203.8 38.301 203.6 42.501 Q 203.267 50.34 200.534 55.885 A 23.091 23.091 0 0 1 199.35 58.001 A 23.002 23.002 0 0 1 188.718 66.958 A 27.82 27.82 0 0 1 188.5 67.051 A 35.557 35.557 0 0 1 180.932 69.24 Q 177.475 69.858 173.541 69.974 A 62.511 62.511 0 0 1 171.7 70.001 Z M 162.7 17.001 L 162.7 53.001 L 171.2 53.001 Q 174.5 53.001 176.8 51.901 A 7.979 7.979 0 0 0 180.36 48.524 A 9.697 9.697 0 0 0 180.4 48.451 A 10.058 10.058 0 0 0 181.308 46.136 Q 181.606 45.006 181.727 43.675 A 20.156 20.156 0 0 0 181.8 42.401 Q 181.894 39.693 181.944 37.509 A 294.165 294.165 0 0 0 181.95 37.201 Q 182 34.901 181.95 32.601 Q 181.9 30.301 181.8 27.501 A 16.793 16.793 0 0 0 181.439 24.5 Q 181.082 22.879 180.385 21.629 A 7.634 7.634 0 0 0 178.65 19.501 A 10.04 10.04 0 0 0 174.683 17.479 Q 173.225 17.091 171.507 17.018 A 19.021 19.021 0 0 0 170.7 17.001 L 162.7 17.001 Z" id="2" vector-effect="non-scaling-stroke"/><path d="M 250.7 70.001 L 234.4 70.001 A 2.659 2.659 0 0 1 233.359 69.801 A 2.52 2.52 0 0 1 232.55 69.251 A 2.508 2.508 0 0 1 231.801 67.435 A 3.201 3.201 0 0 1 231.8 67.401 L 231.8 46.801 L 209 3.101 Q 208.9 2.901 208.8 2.651 Q 208.719 2.448 208.704 2.279 A 0.862 0.862 0 0 1 208.7 2.201 A 2.112 2.112 0 0 1 209.33 0.671 A 2.638 2.638 0 0 1 209.35 0.651 A 2.189 2.189 0 0 1 210.161 0.125 A 2.169 2.169 0 0 1 210.9 0.001 L 226.5 0.001 A 5.738 5.738 0 0 1 227.514 0.084 Q 228.069 0.184 228.505 0.403 A 2.668 2.668 0 0 1 229.2 0.901 Q 230.1 1.801 230.4 2.301 L 242.6 25.301 L 254.8 2.301 Q 254.994 1.818 255.886 0.962 A 14.707 14.707 0 0 1 255.95 0.901 A 3.127 3.127 0 0 1 257.3 0.161 Q 257.774 0.031 258.336 0.007 A 6.096 6.096 0 0 1 258.6 0.001 L 274.3 0.001 A 1.901 1.901 0 0 1 275.459 0.398 A 2.648 2.648 0 0 1 275.75 0.651 A 2.189 2.189 0 0 1 276.276 1.461 A 2.169 2.169 0 0 1 276.4 2.201 A 1.906 1.906 0 0 1 276.389 2.399 Q 276.377 2.518 276.35 2.651 A 1.937 1.937 0 0 1 276.273 2.93 A 1.593 1.593 0 0 1 276.2 3.101 L 253.3 46.801 L 253.3 67.401 A 2.659 2.659 0 0 1 253.101 68.442 A 2.52 2.52 0 0 1 252.55 69.251 A 2.508 2.508 0 0 1 250.735 70.001 A 3.201 3.201 0 0 1 250.7 70.001 Z" id="3" vector-effect="non-scaling-stroke"/><path d="M 314 70.001 L 286.1 70.001 Q 285.1 70.001 284.3 69.251 Q 283.5 68.501 283.5 67.401 L 283.5 2.601 Q 283.5 1.501 284.3 0.751 A 2.89 2.89 0 0 1 285.067 0.225 A 2.442 2.442 0 0 1 286.1 0.001 L 313.5 0.001 A 50.302 50.302 0 0 1 321.49 0.604 Q 326.307 1.379 330.3 3.151 Q 337.4 6.301 341.5 12.401 Q 345.6 18.501 345.9 27.401 A 206.306 206.306 0 0 1 346.037 30.972 Q 346.085 32.601 346.096 34.053 A 115.998 115.998 0 0 1 346.1 35.001 Q 346.1 38.301 345.9 42.501 Q 345.567 50.34 342.834 55.885 A 23.091 23.091 0 0 1 341.65 58.001 A 23.002 23.002 0 0 1 331.018 66.958 A 27.82 27.82 0 0 1 330.8 67.051 A 35.557 35.557 0 0 1 323.232 69.24 Q 319.775 69.858 315.841 69.974 A 62.511 62.511 0 0 1 314 70.001 Z M 305 17.001 L 305 53.001 L 313.5 53.001 Q 316.8 53.001 319.1 51.901 A 7.979 7.979 0 0 0 322.66 48.524 A 9.697 9.697 0 0 0 322.7 48.451 A 10.058 10.058 0 0 0 323.608 46.136 Q 323.906 45.006 324.027 43.675 A 20.156 20.156 0 0 0 324.1 42.401 Q 324.194 39.693 324.244 37.509 A 294.165 294.165 0 0 0 324.25 37.201 Q 324.3 34.901 324.25 32.601 Q 324.2 30.301 324.1 27.501 A 16.793 16.793 0 0 0 323.739 24.5 Q 323.382 22.879 322.685 21.629 A 7.634 7.634 0 0 0 320.95 19.501 A 10.04 10.04 0 0 0 316.983 17.479 Q 315.525 17.091 313.807 17.018 A 19.021 19.021 0 0 0 313 17.001 L 305 17.001 Z" id="4" vector-effect="non-scaling-stroke"/><path d="M 368.1 70.001 L 352.7 70.001 A 2.038 2.038 0 0 1 351.832 69.819 A 2.007 2.007 0 0 1 351.2 69.351 Q 350.6 68.701 350.6 67.801 A 2.717 2.717 0 0 1 350.62 67.47 Q 350.641 67.295 350.687 67.144 A 1.615 1.615 0 0 1 350.7 67.101 L 373.5 3.101 A 5.155 5.155 0 0 1 374.175 1.846 A 6.958 6.958 0 0 1 374.9 1.001 Q 375.9 0.001 377.7 0.001 L 396 0.001 A 5.776 5.776 0 0 1 397.125 0.103 Q 398.221 0.321 398.9 1.001 Q 399.882 1.983 400.189 3.061 A 3.716 3.716 0 0 1 400.2 3.101 L 423.1 67.101 Q 423.2 67.401 423.2 67.801 A 2.112 2.112 0 0 1 422.571 69.331 A 2.638 2.638 0 0 1 422.55 69.351 A 2.189 2.189 0 0 1 421.74 69.876 A 2.169 2.169 0 0 1 421 70.001 L 405.6 70.001 A 5.737 5.737 0 0 1 404.693 69.934 Q 404.214 69.857 403.835 69.692 A 2.357 2.357 0 0 1 403.1 69.201 Q 402.3 68.401 402 67.701 L 398.9 59.301 L 374.8 59.301 L 371.7 67.701 Q 371.468 68.244 370.964 68.847 A 8.223 8.223 0 0 1 370.65 69.201 A 2.163 2.163 0 0 1 369.868 69.719 Q 369.213 69.983 368.233 70 A 7.841 7.841 0 0 1 368.1 70.001 Z M 386.8 19.901 L 379.4 42.401 L 394.3 42.401 L 386.8 19.901 Z" id="5" vector-effect="non-scaling-stroke"/><path d="M 448.7 70.001 L 432.4 70.001 Q 431.4 70.001 430.6 69.251 Q 429.8 68.501 429.8 67.401 L 429.8 2.601 Q 429.8 1.501 430.6 0.751 A 2.89 2.89 0 0 1 431.367 0.225 A 2.442 2.442 0 0 1 432.4 0.001 L 460.9 0.001 A 48.166 48.166 0 0 1 469.378 0.701 Q 474.086 1.543 477.836 3.402 A 24.328 24.328 0 0 1 482.25 6.201 A 20.201 20.201 0 0 1 489.847 20.476 A 29.051 29.051 0 0 1 490 23.501 A 25.483 25.483 0 0 1 489.391 29.212 A 18.983 18.983 0 0 1 486.8 35.401 Q 483.6 40.301 478.4 43.101 L 491.4 66.701 A 3.34 3.34 0 0 1 491.583 67.137 Q 491.664 67.379 491.689 67.602 A 1.776 1.776 0 0 1 491.7 67.801 Q 491.7 68.701 491.1 69.351 Q 490.5 70.001 489.6 70.001 L 472.7 70.001 Q 471.372 70.001 470.483 69.536 A 3.009 3.009 0 0 1 469.8 69.051 A 8.238 8.238 0 0 1 469.244 68.472 Q 468.716 67.861 468.507 67.319 A 2.441 2.441 0 0 1 468.5 67.301 L 458.5 46.701 L 451.3 46.701 L 451.3 67.401 A 2.659 2.659 0 0 1 451.101 68.442 A 2.52 2.52 0 0 1 450.55 69.251 A 2.508 2.508 0 0 1 448.735 70.001 A 3.201 3.201 0 0 1 448.7 70.001 Z M 451.3 16.201 L 451.3 30.201 L 460.8 30.201 Q 463.235 30.201 464.798 29.258 A 5.033 5.033 0 0 0 466 28.251 A 6.852 6.852 0 0 0 467.646 24.412 A 9.091 9.091 0 0 0 467.7 23.401 Q 467.7 20.401 466.05 18.301 Q 464.571 16.418 461.525 16.223 A 11.351 11.351 0 0 0 460.8 16.201 L 451.3 16.201 Z" id="6" vector-effect="non-scaling-stroke"/><path d="M 519 70.001 L 503.1 70.001 Q 502.1 70.001 501.3 69.251 Q 500.5 68.501 500.5 67.401 L 500.5 2.601 Q 500.5 1.501 501.3 0.751 A 2.89 2.89 0 0 1 502.067 0.225 A 2.442 2.442 0 0 1 503.1 0.001 L 519 0.001 A 2.659 2.659 0 0 1 520.042 0.2 A 2.52 2.52 0 0 1 520.85 0.751 A 2.508 2.508 0 0 1 521.6 2.567 A 3.201 3.201 0 0 1 521.6 2.601 L 521.6 23.601 L 536.5 2.101 A 5.49 5.49 0 0 1 537.036 1.467 Q 537.315 1.179 537.662 0.892 A 10 10 0 0 1 537.9 0.701 Q 538.636 0.129 539.839 0.024 A 6.49 6.49 0 0 1 540.4 0.001 L 558.7 0.001 A 2.112 2.112 0 0 1 560.23 0.631 A 2.638 2.638 0 0 1 560.25 0.651 A 2.189 2.189 0 0 1 560.776 1.461 A 2.169 2.169 0 0 1 560.9 2.201 A 1.707 1.707 0 0 1 560.543 3.246 A 2.141 2.141 0 0 1 560.5 3.301 L 539.5 33.501 L 562.3 66.701 Q 562.7 67.101 562.7 67.801 A 2.112 2.112 0 0 1 562.071 69.331 A 2.638 2.638 0 0 1 562.05 69.351 A 2.189 2.189 0 0 1 561.24 69.876 A 2.169 2.169 0 0 1 560.5 70.001 L 541.7 70.001 A 7.067 7.067 0 0 1 540.632 69.926 Q 539.426 69.741 538.75 69.101 A 17.758 17.758 0 0 1 538.371 68.731 Q 537.839 68.196 537.65 67.89 A 1.164 1.164 0 0 1 537.6 67.801 L 521.6 44.601 L 521.6 67.401 A 2.659 2.659 0 0 1 521.401 68.442 A 2.52 2.52 0 0 1 520.85 69.251 A 2.508 2.508 0 0 1 519.035 70.001 A 3.201 3.201 0 0 1 519 70.001 Z" id="7" vector-effect="non-scaling-stroke"/></g></svg>