<svg width="126.801" height="140" viewBox="0 0 126.801 140" xmlns="http://www.w3.org/2000/svg"><g id="svgGroup" stroke-linecap="round" fill-rule="evenodd" font-size="9pt" stroke="#00000000" stroke-width="0.25mm" fill="#ffffff" style="stroke:#00000000;stroke-width:0.25mm;fill:#ffffff"><path d="M 37.801 140 L 5.201 140 A 5.293 5.293 0 0 1 1.726 138.708 A 6.749 6.749 0 0 1 1.601 138.6 Q 0.001 137.2 0.001 134.8 L 0.001 5.2 A 4.855 4.855 0 0 1 1.454 1.643 A 5.866 5.866 0 0 1 1.601 1.5 A 5.78 5.78 0 0 1 3.133 0.449 A 4.885 4.885 0 0 1 5.201 0 L 37.801 0 A 5.319 5.319 0 0 1 39.884 0.399 A 5.04 5.04 0 0 1 41.501 1.5 A 5.017 5.017 0 0 1 43.001 5.132 A 6.409 6.409 0 0 1 43.001 5.2 L 43.001 50.4 L 83.801 50.4 L 83.801 5.2 A 4.855 4.855 0 0 1 85.254 1.643 A 5.866 5.866 0 0 1 85.401 1.5 A 5.78 5.78 0 0 1 86.933 0.449 A 4.885 4.885 0 0 1 89.001 0 L 121.601 0 A 5.319 5.319 0 0 1 123.684 0.399 A 5.04 5.04 0 0 1 125.301 1.5 A 5.017 5.017 0 0 1 126.801 5.132 A 6.409 6.409 0 0 1 126.801 5.2 L 126.801 134.8 A 5.319 5.319 0 0 1 126.402 136.883 A 5.04 5.04 0 0 1 125.301 138.5 A 5.017 5.017 0 0 1 121.669 140 A 6.409 6.409 0 0 1 121.601 140 L 89.001 140 A 5.017 5.017 0 0 1 85.781 138.831 A 6.643 6.643 0 0 1 85.401 138.5 A 4.852 4.852 0 0 1 83.804 135.005 A 5.919 5.919 0 0 1 83.801 134.8 L 83.801 88.4 L 43.001 88.4 L 43.001 134.8 A 5.319 5.319 0 0 1 42.602 136.883 A 5.04 5.04 0 0 1 41.501 138.5 A 5.017 5.017 0 0 1 37.869 140 A 6.409 6.409 0 0 1 37.801 140 Z" id="0" vector-effect="non-scaling-stroke"/></g></svg>